STARTFONT 2.1
COMMENT
COMMENT Converted from OpenType font "Q:\font stuff\winfont\TeutonWeiss-Bold.otf" by "otf2bdf 3.0".
COMMENT
FONT -FreeType-Teuton Weiss-Bold-R-Normal--50-500-72-72-P-173-ISO10646-1
SIZE 50 72 72
FONTBOUNDINGBOX 44 53 -2 -11
STARTPROPERTIES 19
FOUNDRY "FreeType"
FAMILY_NAME "Teuton Weiss"
WEIGHT_NAME "Bold"
SLANT "R"
SETWIDTH_NAME "Normal"
ADD_STYLE_NAME ""
PIXEL_SIZE 50
POINT_SIZE 500
RESOLUTION_X 72
RESOLUTION_Y 72
SPACING "P"
AVERAGE_WIDTH 173
CHARSET_REGISTRY "ISO10646"
CHARSET_ENCODING "1"
FONT_ASCENT 42
FONT_DESCENT 10
COPYRIGHT "Copyright Copr. 2001, Frantisek Storm, www.stormtype.com. All rights reserved."
_OTF_FONTFILE "Q:\font stuff\winfont\TeutonWeiss-Bold.otf"
_OTF_PSNAME "TeutonWeiss-Bold"
ENDPROPERTIES
CHARS 356
STARTCHAR 0020
ENCODING 32
SWIDTH 260 0
DWIDTH 13 0
BBX 0 0 0 0
BITMAP
ENDCHAR
STARTCHAR 0021
ENCODING 33
SWIDTH 200 0
DWIDTH 10 0
BBX 3 35 3 0
BITMAP
E0
E0
E0
E0
E0
E0
E0
E0
E0
E0
E0
E0
E0
E0
E0
E0
E0
E0
E0
E0
E0
E0
E0
E0
E0
E0
E0
00
00
00
00
E0
E0
E0
E0
ENDCHAR
STARTCHAR 0022
ENCODING 34
SWIDTH 300 0
DWIDTH 15 0
BBX 8 8 3 26
BITMAP
E7
E7
E7
E7
E7
E7
E7
E3
ENDCHAR
STARTCHAR 0023
ENCODING 35
SWIDTH 500 0
DWIDTH 25 0
BBX 23 35 1 0
BITMAP
00E03C
01E03C
01E038
01C038
01C038
01C078
01C078
03C078
03C070
038070
3FFFFE
3FFFFE
3FFFFE
0780E0
0780E0
0700E0
0700E0
0701E0
0F01E0
0F01C0
0E01C0
0E01C0
0E01C0
FFFFF8
FFFFF8
FFFFF8
1C0380
1C0380
1C0780
3C0780
3C0700
380700
380700
380700
380F00
ENDCHAR
STARTCHAR 0024
ENCODING 36
SWIDTH 420 0
DWIDTH 21 0
BBX 14 35 3 0
BITMAP
0380
0380
0380
0380
0380
3FFC
7FFC
FFFC
E000
E000
E000
E000
F000
7800
7E00
1F00
0FC0
03E0
01F8
00F8
003C
001C
001C
001C
001C
001C
001C
FFFC
FFF8
FFF8
0380
0380
0380
0380
0380
ENDCHAR
STARTCHAR 0025
ENCODING 37
SWIDTH 600 0
DWIDTH 30 0
BBX 26 35 2 0
BITMAP
1F800F00
7FE01E00
7FE01E00
E0703C00
E0703C00
E0707800
E0707800
E070F000
E070E000
E071E000
E071C000
E073C000
E0738000
F0F78000
7FE70000
7FEF0000
3F8E0000
001E0000
001C7E00
003DFF80
0039FF80
007BC3C0
007381C0
00F381C0
00E381C0
01E381C0
03C381C0
03C381C0
078381C0
078381C0
0F0381C0
0F0381C0
1E01FF80
1C01FF80
3C00FE00
ENDCHAR
STARTCHAR 0026
ENCODING 38
SWIDTH 640 0
DWIDTH 32 0
BBX 25 35 4 0
BITMAP
3FFFC000
7FFFC000
FFFFC000
F0004000
E0000000
E0000000
E0000000
E0000000
E0000000
E0000000
E0000000
60001000
30003000
3FFFFF80
7FFFFF80
FFFFFF80
F0007000
E0007000
E0007000
E0007000
E0007000
E0007000
E0007000
E0007000
E0007000
E0007000
E0007000
E0007000
E0007000
E0007000
E0007000
F0007800
7FFC7F80
7FFC3F80
3FFC1F80
ENDCHAR
STARTCHAR 0027
ENCODING 39
SWIDTH 200 0
DWIDTH 10 0
BBX 3 8 3 26
BITMAP
E0
E0
E0
E0
E0
E0
E0
E0
ENDCHAR
STARTCHAR 0028
ENCODING 40
SWIDTH 320 0
DWIDTH 16 0
BBX 9 45 4 -10
BITMAP
0780
1F80
3F80
7C00
7000
E000
E000
E000
E000
E000
E000
E000
E000
E000
E000
E000
E000
E000
E000
E000
E000
E000
E000
E000
E000
E000
E000
E000
E000
E000
E000
E000
E000
E000
E000
E000
E000
E000
E000
E000
7000
7C00
3F80
1F80
0780
ENDCHAR
STARTCHAR 0029
ENCODING 41
SWIDTH 320 0
DWIDTH 16 0
BBX 9 45 3 -10
BITMAP
F000
FC00
FF00
1F00
0700
0380
0380
0380
0380
0380
0380
0380
0380
0380
0380
0380
0380
0380
0380
0380
0380
0380
0380
0380
0380
0380
0380
0380
0380
0380
0380
0380
0380
0380
0380
0380
0380
0380
0380
0380
0780
1F00
FE00
FC00
F000
ENDCHAR
STARTCHAR 002A
ENCODING 42
SWIDTH 420 0
DWIDTH 21 0
BBX 16 15 3 19
BITMAP
0180
0180
0180
0180
4182
F18F
FFFF
1FF8
03C0
07C0
0660
0E70
1C38
3C3C
0810
ENDCHAR
STARTCHAR 002B
ENCODING 43
SWIDTH 460 0
DWIDTH 23 0
BBX 17 17 3 6
BITMAP
01C000
01C000
01C000
01C000
01C000
01C000
01C000
FFFF80
FFFF80
FFFF80
01C000
01C000
01C000
01C000
01C000
01C000
01C000
ENDCHAR
STARTCHAR 002C
ENCODING 44
SWIDTH 200 0
DWIDTH 10 0
BBX 5 11 2 -7
BITMAP
38
38
38
38
38
38
70
70
70
E0
E0
ENDCHAR
STARTCHAR 002D
ENCODING 45
SWIDTH 300 0
DWIDTH 15 0
BBX 10 3 3 13
BITMAP
FFC0
FFC0
FFC0
ENDCHAR
STARTCHAR 002E
ENCODING 46
SWIDTH 200 0
DWIDTH 10 0
BBX 3 4 3 0
BITMAP
E0
E0
E0
E0
ENDCHAR
STARTCHAR 002F
ENCODING 47
SWIDTH 440 0
DWIDTH 22 0
BBX 21 45 0 -10
BITMAP
000078
000078
000078
0000F0
0000F0
0001E0
0001E0
0001E0
0003C0
0003C0
000380
000780
000780
000F00
000F00
000F00
001E00
001E00
003C00
003C00
003C00
007800
007800
00F000
00F000
00F000
01E000
01E000
03C000
03C000
03C000
078000
078000
078000
0F0000
0F0000
1E0000
1E0000
1E0000
3C0000
3C0000
780000
780000
780000
F00000
ENDCHAR
STARTCHAR 0030
ENCODING 48
SWIDTH 520 0
DWIDTH 26 0
BBX 17 35 4 0
BITMAP
3FFE00
7FFF00
7FFF80
F00780
E00380
E00380
E00380
E00380
E00380
E00380
E00380
E00380
E00380
E00380
E00380
E00380
E00380
E00380
E00380
E00380
E00380
E00380
E00380
E00380
E00380
E00380
E00380
E00380
E00380
E00380
E00380
F00780
FFFF80
7FFF00
3FFE00
ENDCHAR
STARTCHAR 0031
ENCODING 49
SWIDTH 520 0
DWIDTH 26 0
BBX 16 36 5 0
BITMAP
0040
00C0
03C0
07C0
1FC0
3FC0
FDC0
F9C0
E1C0
C1C0
01C0
01C0
01C0
01C0
01C0
01C0
01C0
01C0
01C0
01C0
01C0
01C0
01C0
01C0
01C0
01C0
01C0
01C0
01C0
01C0
01C0
01C0
01C0
7FFF
7FFF
7FFF
ENDCHAR
STARTCHAR 0032
ENCODING 50
SWIDTH 520 0
DWIDTH 26 0
BBX 18 35 4 0
BITMAP
FFFE00
FFFF80
FFFFC0
8003C0
0001C0
0001C0
0001C0
0001C0
0001C0
0001C0
0003C0
000780
000F00
001E00
007C00
00F800
01F000
03C000
078000
1F0000
3E0000
7C0000
780000
F00000
E00000
E00000
E00000
E00000
E00000
E00000
E00000
E00040
FFFFC0
FFFFC0
FFFFC0
ENDCHAR
STARTCHAR 0033
ENCODING 51
SWIDTH 520 0
DWIDTH 26 0
BBX 18 35 3 0
BITMAP
FFFF00
FFFF80
FFFFC0
0003C0
0001C0
0001C0
0001C0
0001C0
0001C0
0001C0
0001C0
0001C0
0001C0
0001C0
000380
1FFF80
1FFC00
1FFF80
000380
0001C0
0001C0
0001C0
0001C0
0001C0
0001C0
0001C0
0001C0
0001C0
0001C0
0001C0
0001C0
0003C0
FFFFC0
FFFF80
FFFF00
ENDCHAR
STARTCHAR 0034
ENCODING 52
SWIDTH 520 0
DWIDTH 26 0
BBX 21 35 3 0
BITMAP
000700
000F00
001F00
001F00
003F00
003F00
007700
007700
00E700
00E700
01C700
03C700
038700
070700
070700
0E0700
0E0700
1C0700
1C0700
380700
700700
700700
E00700
FFFFF8
FFFFF8
FFFFF8
000700
000700
000700
000700
000700
000700
000700
000700
000700
ENDCHAR
STARTCHAR 0035
ENCODING 53
SWIDTH 520 0
DWIDTH 26 0
BBX 17 35 4 0
BITMAP
FFFF80
FFFF80
FFFF80
E00000
E00000
E00000
E00000
E00000
E00000
E00000
E00000
E00000
E00000
E00000
E00000
FFFE00
FFFF00
FFFF80
000780
000380
000380
000380
000380
000380
000380
000380
000380
000380
000380
000380
000380
800780
FFFF80
FFFF00
FFFE00
ENDCHAR
STARTCHAR 0036
ENCODING 54
SWIDTH 520 0
DWIDTH 26 0
BBX 17 35 4 0
BITMAP
3FFF80
7FFF80
7FFF80
F00000
E00000
E00000
E00000
E00000
E00000
E00000
E00000
E00000
E00000
E00000
E00000
FFFE00
FFFF00
FFFF80
E00780
E00380
E00380
E00380
E00380
E00380
E00380
E00380
E00380
E00380
E00380
E00380
E00380
F00780
FFFF80
7FFF00
3FFE00
ENDCHAR
STARTCHAR 0037
ENCODING 55
SWIDTH 520 0
DWIDTH 26 0
BBX 20 35 3 0
BITMAP
FFFFF0
FFFFF0
FFFFF0
0000F0
0000E0
0001E0
0001E0
0001C0
0003C0
000380
000780
000780
000700
000F00
000F00
000E00
001E00
001C00
003C00
003C00
003800
007800
007800
00F000
00F000
00F000
01E000
01E000
03C000
03C000
03C000
078000
078000
078000
0F0000
ENDCHAR
STARTCHAR 0038
ENCODING 56
SWIDTH 520 0
DWIDTH 26 0
BBX 17 35 4 0
BITMAP
3FFE00
7FFF00
7FFF80
F00780
E00380
E00380
E00380
E00380
E00380
E00380
E00380
E00380
E00380
E00380
700700
7FFF00
0FF800
3FFF00
700700
E00380
E00380
E00380
E00380
E00380
E00380
E00380
E00380
E00380
E00380
E00380
E00380
F00780
FFFF80
7FFF00
3FFE00
ENDCHAR
STARTCHAR 0039
ENCODING 57
SWIDTH 520 0
DWIDTH 26 0
BBX 17 35 4 0
BITMAP
3FFE00
7FFF00
7FFF80
F00780
E00380
E00380
E00380
E00380
E00380
E00380
E00380
E00380
E00380
E00380
E00380
F00380
FFFF80
7FFF80
3FFF80
000380
000380
000380
000380
000380
000380
000380
000380
000380
000380
000380
000380
000780
FFFF80
FFFF00
FFFE00
ENDCHAR
STARTCHAR 003A
ENCODING 58
SWIDTH 200 0
DWIDTH 10 0
BBX 3 25 3 0
BITMAP
E0
E0
E0
E0
00
00
00
00
00
00
00
00
00
00
00
00
00
00
00
00
00
E0
E0
E0
E0
ENDCHAR
STARTCHAR 003B
ENCODING 59
SWIDTH 200 0
DWIDTH 10 0
BBX 5 32 1 -7
BITMAP
38
38
38
38
00
00
00
00
00
00
00
00
00
00
00
00
00
00
00
00
00
38
38
38
38
38
38
70
70
70
60
E0
ENDCHAR
STARTCHAR 003C
ENCODING 60
SWIDTH 460 0
DWIDTH 23 0
BBX 18 21 3 5
BITMAP
000040
0001C0
0007C0
001F80
003E00
00F800
03F000
0FC000
3F0000
FC0000
F80000
F80000
7E0000
1F8000
0FE000
03F000
00FC00
003F00
000FC0
0003C0
0000C0
ENDCHAR
STARTCHAR 003D
ENCODING 61
SWIDTH 460 0
DWIDTH 23 0
BBX 18 14 3 8
BITMAP
FFFFC0
FFFFC0
FFFFC0
000000
000000
000000
000000
000000
000000
000000
000000
FFFFC0
FFFFC0
FFFFC0
ENDCHAR
STARTCHAR 003E
ENCODING 62
SWIDTH 460 0
DWIDTH 23 0
BBX 18 21 3 5
BITMAP
800000
E00000
F80000
7E0000
1F0000
0FC000
03F000
00FC00
003F00
001FC0
0007C0
0007C0
001F80
007E00
00F800
03F000
0FC000
3F0000
7C0000
F00000
C00000
ENDCHAR
STARTCHAR 003F
ENCODING 63
SWIDTH 400 0
DWIDTH 20 0
BBX 16 35 2 0
BITMAP
FFFC
FFFE
FFFF
000F
0007
0007
0007
0007
0007
000E
001E
007C
00F8
01E0
03C0
0380
0700
0700
0700
0700
0700
0700
0700
0700
0700
0700
0700
0000
0000
0000
0000
0700
0700
0700
0700
ENDCHAR
STARTCHAR 0040
ENCODING 64
SWIDTH 740 0
DWIDTH 37 0
BBX 30 35 4 -5
BITMAP
1FFFC000
7FFFF000
7FFFF800
F0007800
E0003800
E0003800
E0003800
E0003800
E0003800
E0003800
E03FF81C
E07FF81C
E0F0381C
E0E0381C
E0E0381C
E0E0381C
E0E0381C
E0E0381C
E0E0381C
E0E0381C
E0E0381C
E0E0381C
E0F0381C
E0FFF81C
E07FF81C
E03FF81C
E000001C
E000001C
E000001C
E000001C
E000001C
F000003C
FFFFFFFC
7FFFFFF8
3FFFFFE0
ENDCHAR
STARTCHAR 0041
ENCODING 65
SWIDTH 500 0
DWIDTH 25 0
BBX 24 35 0 1
BITMAP
003E00
007E00
007E00
007E00
00FF00
00FF00
00E700
00E780
01E780
01C780
01C380
01C3C0
03C3C0
0383C0
0381C0
0781E0
0781E0
0700E0
0700F0
0F00F0
0F00F0
0E0070
1E0078
1FFFF8
1FFFF8
1FFFF8
3C003C
3C003C
3C003C
38003E
78001E
78001E
78001E
F0000F
F0000F
ENDCHAR
STARTCHAR 0042
ENCODING 66
SWIDTH 560 0
DWIDTH 28 0
BBX 19 35 4 0
BITMAP
FFFF80
FFFFC0
FFFFC0
E001E0
E000E0
E000E0
E000E0
E000E0
E000E0
E000E0
E000E0
E000E0
E000E0
E000E0
E001E0
FFFFE0
FFFFC0
FFFFC0
E001E0
E000E0
E000E0
E000E0
E000E0
E000E0
E000E0
E000E0
E000E0
E000E0
E000E0
E000E0
E000E0
E001E0
FFFFC0
FFFFC0
FFFF80
ENDCHAR
STARTCHAR 0043
ENCODING 67
SWIDTH 480 0
DWIDTH 24 0
BBX 18 35 4 0
BITMAP
3FFFC0
7FFFC0
7FFFC0
F00040
E00000
E00000
E00000
E00000
E00000
E00000
E00000
E00000
E00000
E00000
E00000
E00000
E00000
E00000
E00000
E00000
E00000
E00000
E00000
E00000
E00000
E00000
E00000
E00000
E00000
E00000
E00000
F00040
FFFFC0
7FFFC0
3FFFC0
ENDCHAR
STARTCHAR 0044
ENCODING 68
SWIDTH 560 0
DWIDTH 28 0
BBX 19 35 4 0
BITMAP
FFFF80
FFFFC0
FFFFE0
E001E0
E000E0
E000E0
E000E0
E000E0
E000E0
E000E0
E000E0
E000E0
E000E0
E000E0
E000E0
E000E0
E000E0
E000E0
E000E0
E000E0
E000E0
E000E0
E000E0
E000E0
E000E0
E000E0
E000E0
E000E0
E000E0
E000E0
E000E0
E001E0
FFFFE0
FFFFC0
FFFF80
ENDCHAR
STARTCHAR 0045
ENCODING 69
SWIDTH 480 0
DWIDTH 24 0
BBX 18 35 4 0
BITMAP
FFFF80
FFFF80
FFFF80
E00000
E00000
E00000
E00000
E00000
E00000
E00000
E00000
E00000
E00000
E00000
E00000
FFFE00
FFFE00
FFFE00
E00000
E00000
E00000
E00000
E00000
E00000
E00000
E00000
E00000
E00000
E00000
E00000
E00000
E00000
FFFFC0
FFFFC0
FFFFC0
ENDCHAR
STARTCHAR 0046
ENCODING 70
SWIDTH 440 0
DWIDTH 22 0
BBX 17 35 4 0
BITMAP
FFFF80
FFFF80
FFFF80
E00000
E00000
E00000
E00000
E00000
E00000
E00000
E00000
E00000
E00000
E00000
E00000
FFFE00
FFFE00
FFFE00
E00000
E00000
E00000
E00000
E00000
E00000
E00000
E00000
E00000
E00000
E00000
E00000
E00000
E00000
E00000
E00000
E00000
ENDCHAR
STARTCHAR 0047
ENCODING 71
SWIDTH 560 0
DWIDTH 28 0
BBX 19 35 4 0
BITMAP
1FFFE0
7FFFE0
7FFFE0
F00020
E00000
E00000
E00000
E00000
E00000
E00000
E00000
E00000
E00000
E00000
E00000
E07FE0
E07FE0
E07FE0
E000E0
E000E0
E000E0
E000E0
E000E0
E000E0
E000E0
E000E0
E000E0
E000E0
E000E0
E000E0
E000E0
F001E0
FFFFE0
7FFFC0
3FFF80
ENDCHAR
STARTCHAR 0048
ENCODING 72
SWIDTH 560 0
DWIDTH 28 0
BBX 19 35 4 1
BITMAP
E000E0
E000E0
E000E0
E000E0
E000E0
E000E0
E000E0
E000E0
E000E0
E000E0
E000E0
E000E0
E000E0
E000E0
E000E0
FFFFE0
FFFFE0
FFFFE0
E000E0
E000E0
E000E0
E000E0
E000E0
E000E0
E000E0
E000E0
E000E0
E000E0
E000E0
E000E0
E000E0
E000E0
E000E0
E000E0
E000E0
ENDCHAR
STARTCHAR 0049
ENCODING 73
SWIDTH 220 0
DWIDTH 11 0
BBX 3 35 4 0
BITMAP
E0
E0
E0
E0
E0
E0
E0
E0
E0
E0
E0
E0
E0
E0
E0
E0
E0
E0
E0
E0
E0
E0
E0
E0
E0
E0
E0
E0
E0
E0
E0
E0
E0
E0
E0
ENDCHAR
STARTCHAR 004A
ENCODING 74
SWIDTH 340 0
DWIDTH 17 0
BBX 11 35 1 0
BITMAP
00E0
00E0
00E0
00E0
00E0
00E0
00E0
00E0
00E0
00E0
00E0
00E0
00E0
00E0
00E0
00E0
00E0
00E0
00E0
00E0
00E0
00E0
00E0
00E0
00E0
00E0
00E0
00E0
00E0
00E0
00E0
01E0
FFE0
FFC0
FF80
ENDCHAR
STARTCHAR 004B
ENCODING 75
SWIDTH 520 0
DWIDTH 26 0
BBX 20 35 4 1
BITMAP
E000F0
E001E0
E001E0
E003C0
E003C0
E00780
E00780
E00F00
E00F00
E01E00
E01E00
E01C00
E03C00
E03C00
E07800
FFF000
FFE000
FFF000
E07800
E03C00
E03C00
E01E00
E01E00
E01E00
E00F00
E00F00
E00780
E00780
E003C0
E003C0
E003E0
E001E0
E001E0
E000F0
E000F0
ENDCHAR
STARTCHAR 004C
ENCODING 76
SWIDTH 460 0
DWIDTH 23 0
BBX 18 35 4 0
BITMAP
E00000
E00000
E00000
E00000
E00000
E00000
E00000
E00000
E00000
E00000
E00000
E00000
E00000
E00000
E00000
E00000
E00000
E00000
E00000
E00000
E00000
E00000
E00000
E00000
E00000
E00000
E00000
E00000
E00000
E00000
E00000
E00000
FFFFC0
FFFFC0
FFFFC0
ENDCHAR
STARTCHAR 004D
ENCODING 77
SWIDTH 660 0
DWIDTH 33 0
BBX 24 35 4 0
BITMAP
F8001F
FC001F
FC003F
FC003F
FE003F
FE007F
EE0077
EE0077
EF00F7
E700E7
E700E7
E781E7
E381C7
E381C7
E3C3C7
E1C387
E1C387
E1E387
E0E707
E0E707
E0F707
E07E07
E07E07
E07E07
E03C07
E03C07
E00007
E00007
E00007
E00007
E00007
E00007
E00007
E00007
E00007
ENDCHAR
STARTCHAR 004E
ENCODING 78
SWIDTH 560 0
DWIDTH 28 0
BBX 20 35 4 0
BITMAP
F00070
F00070
F80070
F80070
FC0070
FC0070
FE0070
EE0070
EF0070
EF0070
E78070
E78070
E38070
E3C070
E1C070
E1E070
E0E070
E0F070
E07070
E07870
E03870
E03C70
E03C70
E01E70
E01E70
E00F70
E00F70
E00770
E007F0
E003F0
E003F0
E001F0
E001F0
E000F0
E000F0
ENDCHAR
STARTCHAR 004F
ENCODING 79
SWIDTH 560 0
DWIDTH 28 0
BBX 19 35 4 0
BITMAP
3FFF80
7FFFC0
7FFFE0
F001E0
E000E0
E000E0
E000E0
E000E0
E000E0
E000E0
E000E0
E000E0
E000E0
E000E0
E000E0
E000E0
E000E0
E000E0
E000E0
E000E0
E000E0
E000E0
E000E0
E000E0
E000E0
E000E0
E000E0
E000E0
E000E0
E000E0
E000E0
F001E0
FFFFE0
7FFFC0
3FFF80
ENDCHAR
STARTCHAR 0050
ENCODING 80
SWIDTH 520 0
DWIDTH 26 0
BBX 19 35 4 0
BITMAP
FFFF80
FFFFC0
FFFFE0
E001E0
E000E0
E000E0
E000E0
E000E0
E000E0
E000E0
E000E0
E000E0
E000E0
E000E0
E000E0
E001E0
FFFFE0
FFFFC0
FFFF80
E00000
E00000
E00000
E00000
E00000
E00000
E00000
E00000
E00000
E00000
E00000
E00000
E00000
E00000
E00000
E00000
ENDCHAR
STARTCHAR 0051
ENCODING 81
SWIDTH 560 0
DWIDTH 28 0
BBX 19 45 4 -10
BITMAP
3FFF80
7FFFC0
7FFFE0
F001E0
E000E0
E000E0
E000E0
E000E0
E000E0
E000E0
E000E0
E000E0
E000E0
E000E0
E000E0
E000E0
E000E0
E000E0
E000E0
E000E0
E000E0
E000E0
E000E0
E000E0
E000E0
E000E0
E000E0
E0E0E0
E060E0
E060E0
E070E0
F031E0
FFFFE0
7FFFC0
3FFF80
001C00
001C00
001C00
000E00
000E00
000E00
000700
000700
000700
000380
ENDCHAR
STARTCHAR 0052
ENCODING 82
SWIDTH 560 0
DWIDTH 28 0
BBX 21 35 4 0
BITMAP
FFFF80
FFFFC0
FFFFE0
E001E0
E000E0
E000E0
E000E0
E000E0
E000E0
E000E0
E000E0
E000E0
E000E0
E000E0
E001E0
FFFFE0
FFFFC0
FFFF80
E00E00
E00E00
E00F00
E00700
E00700
E00780
E00380
E003C0
E003C0
E001C0
E001E0
E001E0
E000E0
E000F0
E000F0
E00070
E00078
ENDCHAR
STARTCHAR 0053
ENCODING 83
SWIDTH 500 0
DWIDTH 25 0
BBX 18 35 3 0
BITMAP
1FFFC0
7FFFC0
7FFFC0
F00040
E00000
E00000
E00000
E00000
E00000
E00000
F00000
780000
7C0000
3E0000
1F0000
07C000
03E000
01F000
00F800
007E00
001F00
000F80
000780
0003C0
0001C0
0001C0
0001C0
0001C0
0001C0
0001C0
0001C0
8003C0
FFFFC0
FFFF80
FFFF00
ENDCHAR
STARTCHAR 0054
ENCODING 84
SWIDTH 460 0
DWIDTH 23 0
BBX 19 35 2 0
BITMAP
FFFFE0
FFFFE0
FFFFE0
00E000
00E000
00E000
00E000
00E000
00E000
00E000
00E000
00E000
00E000
00E000
00E000
00E000
00E000
00E000
00E000
00E000
00E000
00E000
00E000
00E000
00E000
00E000
00E000
00E000
00E000
00E000
00E000
00E000
00E000
00E000
00E000
ENDCHAR
STARTCHAR 0055
ENCODING 85
SWIDTH 560 0
DWIDTH 28 0
BBX 19 35 4 0
BITMAP
E000E0
E000E0
E000E0
E000E0
E000E0
E000E0
E000E0
E000E0
E000E0
E000E0
E000E0
E000E0
E000E0
E000E0
E000E0
E000E0
E000E0
E000E0
E000E0
E000E0
E000E0
E000E0
E000E0
E000E0
E000E0
E000E0
E000E0
E000E0
E000E0
E000E0
E000E0
F001E0
FFFFE0
7FFFC0
3FFF80
ENDCHAR
STARTCHAR 0056
ENCODING 86
SWIDTH 500 0
DWIDTH 25 0
BBX 24 35 0 0
BITMAP
F0000F
F0000F
78000E
78001E
78001E
78001C
3C001C
3C003C
3C003C
1C0038
1E0038
1E0078
1E0078
0E0070
0F00F0
0F00F0
0F00E0
0780E0
0781E0
0781E0
0381C0
03C1C0
03C3C0
03C380
01C380
01E780
01E780
00E700
00E700
00FF00
00FE00
007E00
007E00
007E00
007C00
ENDCHAR
STARTCHAR 0057
ENCODING 87
SWIDTH 760 0
DWIDTH 38 0
BBX 36 35 1 0
BITMAP
F000F000F0
F000F000F0
7000F000E0
7000F800E0
7800F801E0
7801F801E0
7801F801C0
3801F801C0
3C01FC01C0
3C019C03C0
3C039C03C0
1C039C0380
1C039C0380
1E039C0780
1E030E0780
0E070E0700
0E070E0700
0F070E0700
0F070E0F00
0F06070E00
070E070E00
070E070E00
078E071E00
078E071E00
038C079C00
039C039C00
03DC039C00
03DC03BC00
01DC03B800
01D803F800
01F801F800
01F801F800
01F801F000
00F801F000
00F001F000
ENDCHAR
STARTCHAR 0058
ENCODING 88
SWIDTH 540 0
DWIDTH 27 0
BBX 26 35 0 0
BITMAP
3C000F00
3E001F00
1E001E00
1F003C00
0F003C00
07807800
07807800
03C0F000
03C0F000
01E1E000
01E1E000
00F3C000
00F38000
007F8000
003F0000
003F0000
001E0000
003F0000
007F8000
007F8000
00F3C000
00F3C000
01E1E000
01E1E000
03C0F000
0780F800
07807800
0F003C00
0F003C00
1E001E00
1E001E00
3C000F00
7C000F80
78000780
F80007C0
ENDCHAR
STARTCHAR 0059
ENCODING 89
SWIDTH 520 0
DWIDTH 26 0
BBX 25 35 0 0
BITMAP
F0000780
F8000F00
78000F00
3C001E00
3C001E00
1E003C00
1E003800
0F007800
0F80F000
0780F000
03C1E000
03C1E000
01E3C000
01E3C000
00F78000
00F70000
007F0000
003E0000
003E0000
001C0000
001C0000
001C0000
001C0000
001C0000
001C0000
001C0000
001C0000
001C0000
001C0000
001C0000
001C0000
001C0000
001C0000
001C0000
001C0000
ENDCHAR
STARTCHAR 005A
ENCODING 90
SWIDTH 500 0
DWIDTH 25 0
BBX 21 35 2 0
BITMAP
FFFFF8
FFFFF8
FFFFF0
0000F0
0000E0
0001E0
0001C0
0003C0
000380
000780
000F00
000F00
001E00
001E00
003C00
003800
007800
007000
00F000
00E000
01E000
01C000
03C000
078000
078000
0F0000
0F0000
1E0000
1C0000
3C0000
380000
780000
7FFFF8
FFFFF8
FFFFF8
ENDCHAR
STARTCHAR 005B
ENCODING 91
SWIDTH 380 0
DWIDTH 19 0
BBX 10 45 4 -10
BITMAP
FFC0
FFC0
FFC0
E000
E000
E000
E000
E000
E000
E000
E000
E000
E000
E000
E000
E000
E000
E000
E000
E000
E000
E000
E000
E000
E000
E000
E000
E000
E000
E000
E000
E000
E000
E000
E000
E000
E000
E000
E000
E000
E000
E000
FFC0
FFC0
FFC0
ENDCHAR
STARTCHAR 005C
ENCODING 92
SWIDTH 420 0
DWIDTH 21 0
BBX 21 35 0 0
BITMAP
F00000
780000
780000
3C0000
3C0000
1E0000
1E0000
0F0000
0F0000
078000
078000
03C000
03C000
01E000
01E000
00F000
00F000
007800
007800
003C00
003C00
001E00
001E00
000F00
000F00
000780
000780
0003C0
0003C0
0001E0
0001E0
0000F0
0000F0
000078
000078
ENDCHAR
STARTCHAR 005D
ENCODING 93
SWIDTH 340 0
DWIDTH 17 0
BBX 10 45 3 -10
BITMAP
FFC0
FFC0
FFC0
01C0
01C0
01C0
01C0
01C0
01C0
01C0
01C0
01C0
01C0
01C0
01C0
01C0
01C0
01C0
01C0
01C0
01C0
01C0
01C0
01C0
01C0
01C0
01C0
01C0
01C0
01C0
01C0
01C0
01C0
01C0
01C0
01C0
01C0
01C0
01C0
01C0
01C0
01C0
FFC0
FFC0
FFC0
ENDCHAR
STARTCHAR 005E
ENCODING 94
SWIDTH 360 0
DWIDTH 18 0
BBX 17 13 1 21
BITMAP
01C000
01C000
03E000
03E000
077000
0E3800
0E3800
1C1C00
181C00
380E00
300600
700700
E00380
ENDCHAR
STARTCHAR 005F
ENCODING 95
SWIDTH 720 0
DWIDTH 36 0
BBX 30 3 3 -7
BITMAP
FFFFFFFC
FFFFFFFC
FFFFFFFC
ENDCHAR
STARTCHAR 0060
ENCODING 96
SWIDTH 340 0
DWIDTH 17 0
BBX 8 7 4 28
BITMAP
F0
78
38
1C
0E
07
03
ENDCHAR
STARTCHAR 0061
ENCODING 97
SWIDTH 460 0
DWIDTH 23 0
BBX 16 25 3 0
BITMAP
FFFC
FFFE
FFFF
000F
0007
0007
0007
0007
0007
1FFF
7FFF
7FFF
F007
E007
E007
E007
E007
E007
E007
E007
E007
F007
7FFF
7FFF
3FFF
ENDCHAR
STARTCHAR 0062
ENCODING 98
SWIDTH 460 0
DWIDTH 23 0
BBX 17 35 3 0
BITMAP
E00000
E00000
E00000
E00000
E00000
E00000
E00000
E00000
E00000
E00000
FFFE00
FFFF00
FFFF80
E00780
E00380
E00380
E00380
E00380
E00380
E00380
E00380
E00380
E00380
E00380
E00380
E00380
E00380
E00380
E00380
E00380
E00380
E00780
FFFF00
FFFF00
FFFC00
ENDCHAR
STARTCHAR 0063
ENCODING 99
SWIDTH 380 0
DWIDTH 19 0
BBX 14 25 3 0
BITMAP
3FFC
7FFC
7FFC
F000
E000
E000
E000
E000
E000
E000
E000
E000
E000
E000
E000
E000
E000
E000
E000
E000
E000
F000
FFFC
7FFC
3FFC
ENDCHAR
STARTCHAR 0064
ENCODING 100
SWIDTH 460 0
DWIDTH 23 0
BBX 17 35 3 0
BITMAP
000380
000380
000380
000380
000380
000380
000380
000380
000380
000380
3FFF80
7FFF80
7FFF80
F00380
E00380
E00380
E00380
E00380
E00380
E00380
E00380
E00380
E00380
E00380
E00380
E00380
E00380
E00380
E00380
E00380
E00380
F00380
7FFF80
7FFF80
1FFF80
ENDCHAR
STARTCHAR 0065
ENCODING 101
SWIDTH 460 0
DWIDTH 23 0
BBX 16 25 3 0
BITMAP
1FFC
7FFE
7FFF
F00F
E007
E007
E007
E007
E007
FFFF
FFFF
FFFF
E000
E000
E000
E000
E000
E000
E000
E000
E000
F000
7FFF
7FFF
1FFF
ENDCHAR
STARTCHAR 0066
ENCODING 102
SWIDTH 280 0
DWIDTH 14 0
BBX 10 35 3 0
BITMAP
3FC0
7FC0
7FC0
F000
E000
E000
E000
E000
E000
E000
FFC0
FFC0
FFC0
E000
E000
E000
E000
E000
E000
E000
E000
E000
E000
E000
E000
E000
E000
E000
E000
E000
E000
E000
E000
E000
E000
ENDCHAR
STARTCHAR 0067
ENCODING 103
SWIDTH 460 0
DWIDTH 23 0
BBX 17 35 3 -10
BITMAP
1FFF80
7FFF80
7FFF80
F00380
E00380
E00380
E00380
E00380
E00380
E00380
E00380
E00380
E00380
E00380
E00380
E00380
E00380
E00380
E00380
E00380
E00380
F00380
FFFF80
7FFF80
3FFF80
000380
000380
000380
000380
000380
000380
000780
FFFF00
FFFF00
FFFC00
ENDCHAR
STARTCHAR 0068
ENCODING 104
SWIDTH 460 0
DWIDTH 23 0
BBX 17 35 3 0
BITMAP
E00000
E00000
E00000
E00000
E00000
E00000
E00000
E00000
E00000
E00000
FFFE00
FFFF00
FFFF80
E00780
E00380
E00380
E00380
E00380
E00380
E00380
E00380
E00380
E00380
E00380
E00380
E00380
E00380
E00380
E00380
E00380
E00380
E00380
E00380
E00380
E00380
ENDCHAR
STARTCHAR 0069
ENCODING 105
SWIDTH 200 0
DWIDTH 10 0
BBX 3 33 3 0
BITMAP
E0
E0
E0
E0
00
00
00
00
E0
E0
E0
E0
E0
E0
E0
E0
E0
E0
E0
E0
E0
E0
E0
E0
E0
E0
E0
E0
E0
E0
E0
E0
E0
ENDCHAR
STARTCHAR 006A
ENCODING 106
SWIDTH 200 0
DWIDTH 10 0
BBX 5 43 1 -10
BITMAP
38
38
38
38
00
00
00
00
38
38
38
38
38
38
38
38
38
38
38
38
38
38
38
38
38
38
38
38
38
38
38
38
38
38
38
38
38
38
78
70
70
70
F0
ENDCHAR
STARTCHAR 006B
ENCODING 107
SWIDTH 440 0
DWIDTH 22 0
BBX 17 35 3 0
BITMAP
E00000
E00000
E00000
E00000
E00000
E00000
E00000
E00000
E00000
E00000
E00F00
E00F00
E00E00
E01E00
E01C00
E03C00
E03800
E07800
E07000
E0F000
FFE000
FFC000
FFE000
E0F000
E07000
E07800
E03800
E03C00
E03C00
E01E00
E01E00
E00E00
E00F00
E00F00
E00780
ENDCHAR
STARTCHAR 006C
ENCODING 108
SWIDTH 200 0
DWIDTH 10 0
BBX 3 35 3 0
BITMAP
E0
E0
E0
E0
E0
E0
E0
E0
E0
E0
E0
E0
E0
E0
E0
E0
E0
E0
E0
E0
E0
E0
E0
E0
E0
E0
E0
E0
E0
E0
E0
E0
E0
E0
E0
ENDCHAR
STARTCHAR 006D
ENCODING 109
SWIDTH 680 0
DWIDTH 34 0
BBX 27 25 3 0
BITMAP
FFF0FF00
FFFBFFC0
FFFBFFE0
E01F01E0
E00E00E0
E00E00E0
E00E00E0
E00E00E0
E00E00E0
E00E00E0
E00E00E0
E00E00E0
E00E00E0
E00E00E0
E00E00E0
E00E00E0
E00E00E0
E00E00E0
E00E00E0
E00E00E0
E00E00E0
E00E00E0
E00E00E0
E00E00E0
E00E00E0
ENDCHAR
STARTCHAR 006E
ENCODING 110
SWIDTH 460 0
DWIDTH 23 0
BBX 17 25 3 0
BITMAP
FFFC00
FFFF00
FFFF80
E00780
E00380
E00380
E00380
E00380
E00380
E00380
E00380
E00380
E00380
E00380
E00380
E00380
E00380
E00380
E00380
E00380
E00380
E00380
E00380
E00380
E00380
ENDCHAR
STARTCHAR 006F
ENCODING 111
SWIDTH 460 0
DWIDTH 23 0
BBX 17 25 3 0
BITMAP
1FFC00
7FFF00
7FFF80
F00780
E00380
E00380
E00380
E00380
E00380
E00380
E00380
E00380
E00380
E00380
E00380
E00380
E00380
E00380
E00380
E00380
E00380
F00780
7FFF00
7FFF00
1FFC00
ENDCHAR
STARTCHAR 0070
ENCODING 112
SWIDTH 460 0
DWIDTH 23 0
BBX 17 35 3 -10
BITMAP
FFFC00
FFFF00
FFFF80
E00780
E00380
E00380
E00380
E00380
E00380
E00380
E00380
E00380
E00380
E00380
E00380
E00380
E00380
E00380
E00380
E00380
E00380
E00780
FFFF80
FFFF00
FFFE00
E00000
E00000
E00000
E00000
E00000
E00000
E00000
E00000
E00000
E00000
ENDCHAR
STARTCHAR 0071
ENCODING 113
SWIDTH 460 0
DWIDTH 23 0
BBX 17 35 3 -10
BITMAP
1FFF80
7FFF80
7FFF80
F00380
E00380
E00380
E00380
E00380
E00380
E00380
E00380
E00380
E00380
E00380
E00380
E00380
E00380
E00380
E00380
E00380
E00380
F00380
FFFF80
7FFF80
3FFF80
000380
000380
000380
000380
000380
000380
000380
000380
000380
000380
ENDCHAR
STARTCHAR 0072
ENCODING 114
SWIDTH 300 0
DWIDTH 15 0
BBX 11 25 3 0
BITMAP
EFE0
FFE0
FFE0
F020
E000
E000
E000
E000
E000
E000
E000
E000
E000
E000
E000
E000
E000
E000
E000
E000
E000
E000
E000
E000
E000
ENDCHAR
STARTCHAR 0073
ENCODING 115
SWIDTH 400 0
DWIDTH 20 0
BBX 14 25 3 0
BITMAP
1FFC
7FFC
7FFC
F000
E000
E000
E000
E000
F000
7C00
3E00
1F80
07C0
03F0
00F8
007C
003C
001C
001C
001C
001C
003C
FFFC
FFF8
FFF0
ENDCHAR
STARTCHAR 0074
ENCODING 116
SWIDTH 300 0
DWIDTH 15 0
BBX 10 31 3 1
BITMAP
6000
E000
E000
E000
E000
E000
FFC0
FFC0
FFC0
E000
E000
E000
E000
E000
E000
E000
E000
E000
E000
E000
E000
E000
E000
E000
E000
E000
E000
F000
FFC0
7FC0
3FC0
ENDCHAR
STARTCHAR 0075
ENCODING 117
SWIDTH 460 0
DWIDTH 23 0
BBX 17 25 3 0
BITMAP
E00380
E00380
E00380
E00380
E00380
E00380
E00380
E00380
E00380
E00380
E00380
E00380
E00380
E00380
E00380
E00380
E00380
E00380
E00380
E00380
E00380
F00380
7FFF80
7FFF80
1FFF80
ENDCHAR
STARTCHAR 0076
ENCODING 118
SWIDTH 420 0
DWIDTH 21 0
BBX 19 25 1 0
BITMAP
F001E0
F001E0
7801C0
7803C0
7803C0
380380
3C0380
3C0780
1C0700
1C0700
1E0700
1E0F00
0E0E00
0E0E00
0F1E00
071C00
071C00
079C00
07B800
03B800
03B800
03F800
01F000
01F000
01F000
ENDCHAR
STARTCHAR 0077
ENCODING 119
SWIDTH 640 0
DWIDTH 32 0
BBX 30 25 1 0
BITMAP
F007803C
F007803C
70078038
7807C078
780FC078
780FC070
380FC070
3C0CC0F0
3C0CE0F0
1C1CE0E0
1C1CE0E0
1E1CE0E0
1E1861E0
0E1871C0
0E3871C0
0F3871C0
0F387380
07303380
07303B80
07F03B80
07F03F00
03F03F00
03E01F00
03E01F00
01E01E00
ENDCHAR
STARTCHAR 0078
ENCODING 120
SWIDTH 440 0
DWIDTH 22 0
BBX 19 25 1 0
BITMAP
F001E0
7803C0
780380
3C0780
1E0700
1E0F00
0F1E00
071C00
07BC00
03B800
03F800
01F000
00E000
01F000
03F800
03B800
07BC00
071C00
0F1E00
1E0F00
1C0F00
3C0780
3803C0
7803C0
F001E0
ENDCHAR
STARTCHAR 0079
ENCODING 121
SWIDTH 420 0
DWIDTH 21 0
BBX 19 35 1 -10
BITMAP
F001E0
F001E0
7801C0
7803C0
7803C0
380380
3C0380
3C0780
1C0700
1C0700
1E0700
1E0F00
0E0E00
0E0E00
0F1E00
071C00
071C00
079C00
07B800
03B800
03B800
03F800
01F000
01F000
01F000
00E000
00E000
01E000
01C000
01C000
03C000
03C000
078000
078000
078000
ENDCHAR
STARTCHAR 007A
ENCODING 122
SWIDTH 400 0
DWIDTH 20 0
BBX 17 25 2 0
BITMAP
FFFF80
FFFF80
FFFF00
000F00
000E00
001E00
001C00
003800
007800
007000
00E000
01E000
01C000
03C000
038000
070000
0F0000
0E0000
1E0000
3C0000
380000
780000
7FFF80
FFFF80
FFFF80
ENDCHAR
STARTCHAR 007B
ENCODING 123
SWIDTH 340 0
DWIDTH 17 0
BBX 12 45 1 -10
BITMAP
00F0
03F0
07F0
0F80
0E00
1C00
1C00
1C00
1C00
1C00
1C00
1C00
1C00
1C00
1C00
1C00
1C00
1C00
1C00
1C00
3800
F800
F800
3C00
1C00
1C00
1C00
1C00
1C00
1C00
1C00
1C00
1C00
1C00
1C00
1C00
1C00
1C00
1C00
1C00
0E00
0F80
07F0
03F0
00F0
ENDCHAR
STARTCHAR 007C
ENCODING 124
SWIDTH 220 0
DWIDTH 11 0
BBX 3 45 4 -10
BITMAP
E0
E0
E0
E0
E0
E0
E0
E0
E0
E0
E0
E0
E0
E0
E0
E0
E0
E0
E0
E0
E0
E0
E0
E0
E0
E0
E0
E0
E0
E0
E0
E0
E0
E0
E0
E0
E0
E0
E0
E0
E0
E0
E0
E0
E0
ENDCHAR
STARTCHAR 007D
ENCODING 125
SWIDTH 340 0
DWIDTH 17 0
BBX 12 45 3 -10
BITMAP
F000
FC00
FE00
1F00
0700
0380
0380
0380
0380
0380
0380
0380
0380
0380
0380
0380
0380
0380
0380
0380
01E0
01F0
01F0
03C0
0380
0380
0380
0380
0380
0380
0380
0380
0380
0380
0380
0380
0380
0380
0380
0380
0780
1F00
FE00
FC00
F000
ENDCHAR
STARTCHAR 007E
ENCODING 126
SWIDTH 480 0
DWIDTH 24 0
BBX 19 8 2 21
BITMAP
1E0060
3F8060
7FC060
E1E060
E0F8E0
C07FE0
C03FC0
C00F80
ENDCHAR
STARTCHAR 00A0
ENCODING 160
SWIDTH 260 0
DWIDTH 13 0
BBX 0 0 0 0
BITMAP
ENDCHAR
STARTCHAR 00A1
ENCODING 161
SWIDTH 200 0
DWIDTH 10 0
BBX 3 35 3 -10
BITMAP
E0
E0
E0
E0
00
00
00
00
E0
E0
E0
E0
E0
E0
E0
E0
E0
E0
E0
E0
E0
E0
E0
E0
E0
E0
E0
E0
E0
E0
E0
E0
E0
E0
E0
ENDCHAR
STARTCHAR 00A2
ENCODING 162
SWIDTH 380 0
DWIDTH 19 0
BBX 15 35 2 0
BITMAP
01C0
01C0
01C0
01C0
01C0
3FFE
7FFE
7FFE
F000
E000
E000
E000
E000
E000
E000
E000
E000
E000
E000
E000
E000
E000
E000
E000
E000
E000
F000
7FFE
7FFE
3FFE
01C0
01C0
01C0
01C0
01C0
ENDCHAR
STARTCHAR 00A3
ENCODING 163
SWIDTH 460 0
DWIDTH 23 0
BBX 20 35 2 0
BITMAP
0FF800
1FF800
1FF800
3C0000
380000
380000
380000
380000
380000
380000
380000
380000
380000
380000
380000
380000
FFF800
FFF800
FFF800
380000
380000
380000
380000
380000
380000
380000
380000
380000
380000
380000
380000
380000
3FFFF0
3FFFF0
3FFFF0
ENDCHAR
STARTCHAR 00A4
ENCODING 164
SWIDTH 520 0
DWIDTH 26 0
BBX 23 35 2 0
BITMAP
E0001E
F0001C
70003C
780078
380078
3C00F0
1FFFF0
1FFFE0
1FFFE0
1E01E0
1C00E0
1C00E0
1C00E0
1C00E0
1C00E0
1C00E0
1C00E0
1C00E0
1C00E0
1C00E0
1C00E0
1C00E0
1C00E0
1C00E0
1C00E0
1E01E0
1FFFE0
1FFFE0
1FFFF0
3C00F0
380078
780078
70003C
F0001C
E0001E
ENDCHAR
STARTCHAR 00A5
ENCODING 165
SWIDTH 520 0
DWIDTH 26 0
BBX 25 35 0 1
BITMAP
F0000780
F8000F00
78000F00
3C001E00
3E003E00
1E003C00
1F007800
0F007800
0780F000
0780F000
03C1E000
03C1E000
01E3C000
01E38000
00F78000
00770000
007F0000
003E0000
003E0000
001C0000
001C0000
001C0000
01FFC000
01FFC000
01FFC000
001C0000
001C0000
001C0000
001C0000
001C0000
001C0000
001C0000
001C0000
001C0000
001C0000
ENDCHAR
STARTCHAR 00A7
ENCODING 167
SWIDTH 440 0
DWIDTH 22 0
BBX 16 45 3 -10
BITMAP
1FFF
7FFF
7FFF
F000
E000
E000
E000
E000
F000
F800
FC00
FF00
EF80
E7C0
E3E0
E0F8
E07C
E01E
E00E
E007
E007
E007
E007
E007
F007
7807
3C07
1F07
0F87
07C7
01F7
00FF
007F
003F
000F
0007
0007
0007
0007
0007
0007
000F
FFFF
FFFE
FFFC
ENDCHAR
STARTCHAR 00A8
ENCODING 168
SWIDTH 360 0
DWIDTH 18 0
BBX 10 4 4 30
BITMAP
E1C0
E1C0
E1C0
E1C0
ENDCHAR
STARTCHAR 00A9
ENCODING 169
SWIDTH 660 0
DWIDTH 33 0
BBX 26 35 4 0
BITMAP
1FFFFE00
7FFFFF80
70000380
E00001C0
E00001C0
E00001C0
E1FFF1C0
E3FFF1C0
E38001C0
E38001C0
E38001C0
E38001C0
E38001C0
E38001C0
E38001C0
E38001C0
E38001C0
E38001C0
E38001C0
E38001C0
E38001C0
E38001C0
E38001C0
E38001C0
E38001C0
E38001C0
E38001C0
E3FFF1C0
E1FFF1C0
E00001C0
E00001C0
E00001C0
70000380
7FFFFF80
1FFFFE00
ENDCHAR
STARTCHAR 00AA
ENCODING 170
SWIDTH 460 0
DWIDTH 23 0
BBX 16 35 3 0
BITMAP
FFFC
FFFE
FFFF
000F
0007
0007
0007
0007
0007
1FFF
7FFF
7FFF
F007
E007
E007
E007
E007
E007
E007
E007
E007
F007
7FFF
7FFF
3FFF
0000
0000
0000
0000
0000
0000
0000
FFFF
FFFF
FFFF
ENDCHAR
STARTCHAR 00AB
ENCODING 171
SWIDTH 600 0
DWIDTH 30 0
BBX 26 22 2 4
BITMAP
00080040
001800C0
003803C0
00F80780
01F00F00
03C03E00
0F807C00
1F00F800
3E03E000
FC07C000
F0078000
F0078000
F807C000
7C03E000
3F01F000
0F80F800
07C03E00
03E01F00
00F80F80
007803C0
003801C0
000800C0
ENDCHAR
STARTCHAR 00AC
ENCODING 172
SWIDTH 460 0
DWIDTH 23 0
BBX 17 16 3 0
BITMAP
FFFF80
FFFF80
FFFF80
000380
000380
000380
000380
000380
000380
000380
000380
000380
000380
000380
000380
000380
ENDCHAR
STARTCHAR 00AE
ENCODING 174
SWIDTH 660 0
DWIDTH 33 0
BBX 26 35 4 0
BITMAP
1FFFFE00
7FFFFF80
70000380
E00001C0
E00001C0
E00001C0
E3FFE1C0
E3FFF1C0
E38071C0
E38071C0
E38071C0
E38071C0
E38071C0
E38071C0
E38071C0
E38071C0
E3FFF1C0
E3FFE1C0
E38301C0
E38381C0
E38181C0
E381C1C0
E380C1C0
E380E1C0
E380E1C0
E38071C0
E38071C0
E38031C0
E38039C0
E00001C0
E00001C0
E00001C0
70000380
7FFFFF80
1FFFFE00
ENDCHAR
STARTCHAR 00AF
ENCODING 175
SWIDTH 380 0
DWIDTH 19 0
BBX 11 3 4 30
BITMAP
FFE0
FFE0
FFE0
ENDCHAR
STARTCHAR 00B0
ENCODING 176
SWIDTH 340 0
DWIDTH 17 0
BBX 12 17 2 18
BITMAP
1FC0
7FE0
7FF0
E070
E070
E070
E070
E070
E070
E070
E070
E070
E070
F070
7FF0
7FE0
3FC0
ENDCHAR
STARTCHAR 00B1
ENCODING 177
SWIDTH 460 0
DWIDTH 23 0
BBX 17 24 3 1
BITMAP
01C000
01C000
01C000
01C000
01C000
01C000
01C000
FFFF80
FFFF80
FFFF80
01C000
01C000
01C000
01C000
01C000
01C000
01C000
000000
000000
000000
000000
FFFF80
FFFF80
FFFF80
ENDCHAR
STARTCHAR 00B4
ENCODING 180
SWIDTH 340 0
DWIDTH 17 0
BBX 8 7 4 28
BITMAP
07
0E
1E
1C
38
70
E0
ENDCHAR
STARTCHAR 00B5
ENCODING 181
SWIDTH 460 0
DWIDTH 23 0
BBX 17 35 3 -10
BITMAP
E00380
E00380
E00380
E00380
E00380
E00380
E00380
E00380
E00380
E00380
E00380
E00380
E00380
E00380
E00380
E00380
E00380
E00380
E00380
E00380
E00380
F00380
FFFF80
FFFF80
FFFF80
E00000
E00000
E00000
E00000
E00000
E00000
E00000
E00000
E00000
E00000
ENDCHAR
STARTCHAR 00B6
ENCODING 182
SWIDTH 520 0
DWIDTH 26 0
BBX 19 35 4 0
BITMAP
3FFFE0
7FFFE0
FFFFE0
FFFFE0
FFFFE0
FFFFE0
FFFFE0
FFFFE0
FFFFE0
FFFFE0
FFFFE0
FFFFE0
FFFFE0
FFFFE0
FFFFE0
FFFFE0
FFFFE0
7FFFE0
3FFFE0
0000E0
0000E0
0000E0
0000E0
0000E0
0000E0
0000E0
0000E0
0000E0
0000E0
0000E0
0000E0
0000E0
0000E0
0000E0
0000E0
ENDCHAR
STARTCHAR 00B7
ENCODING 183
SWIDTH 200 0
DWIDTH 10 0
BBX 4 4 3 12
BITMAP
F0
F0
F0
F0
ENDCHAR
STARTCHAR 00B8
ENCODING 184
SWIDTH 340 0
DWIDTH 17 0
BBX 10 10 4 -9
BITMAP
1800
1800
3F00
0180
01C0
01C0
01C0
01C0
FF80
FF00
ENDCHAR
STARTCHAR 00BA
ENCODING 186
SWIDTH 460 0
DWIDTH 23 0
BBX 17 35 3 0
BITMAP
1FFC00
7FFF00
7FFF80
F00780
E00380
E00380
E00380
E00380
E00380
E00380
E00380
E00380
E00380
E00380
E00380
E00380
E00380
E00380
E00380
E00380
E00380
F00780
7FFF00
7FFF00
1FFC00
000000
000000
000000
000000
000000
000000
000000
FFFF80
FFFF80
FFFF80
ENDCHAR
STARTCHAR 00BB
ENCODING 187
SWIDTH 600 0
DWIDTH 30 0
BBX 26 22 2 4
BITMAP
80040000
C0060000
F0070000
F807C000
7C03E000
1F01F000
0F807C00
07C03E00
03F01F00
00F80FC0
007807C0
003803C0
007807C0
01F00F80
03E01F00
07C07C00
0F00F800
3E01F000
7C03C000
F0078000
E0070000
C0040000
ENDCHAR
STARTCHAR 00BF
ENCODING 191
SWIDTH 400 0
DWIDTH 20 0
BBX 16 35 2 -10
BITMAP
00E0
00E0
00E0
00E0
0000
0000
0000
0000
00E0
00E0
00E0
00E0
00E0
00E0
00E0
00E0
00E0
00E0
00E0
01C0
03C0
0780
1F00
3E00
7C00
7000
E000
E000
E000
E000
E000
F000
FFFF
7FFF
3FFF
ENDCHAR
STARTCHAR 00C0
ENCODING 192
SWIDTH 500 0
DWIDTH 25 0
BBX 24 40 0 0
BITMAP
01FFC0
01FFC0
000000
000000
000000
003E00
003E00
007F00
007F00
007700
007700
00F780
00E780
00E380
01E380
01E3C0
01C3C0
01C1C0
03C1C0
0381E0
0380E0
0780E0
0780F0
0700F0
070070
0F0070
0F0078
0E0038
1FFFF8
1FFFF8
1FFFFC
3C003C
3C001C
3C001C
3C001E
78001E
78000E
78000E
F8000F
F0000F
ENDCHAR
STARTCHAR 00C1
ENCODING 193
SWIDTH 500 0
DWIDTH 25 0
BBX 24 41 0 0
BITMAP
0300C0
0300C0
0381C0
01FF80
00FF00
000000
007C00
007E00
007E00
00FE00
00FE00
00EF00
00EF00
01EF00
01C780
01C780
01C780
03C380
0383C0
0383C0
0783C0
0701E0
0701E0
0701E0
0F00E0
0E00F0
0E00F0
0E00F0
1C0078
1FFFF8
1FFFF8
1FFFF8
3C007C
38003C
38003C
78003C
78001E
78001E
70001E
F0001F
F0000F
ENDCHAR
STARTCHAR 00C2
ENCODING 194
SWIDTH 500 0
DWIDTH 25 0
BBX 24 41 0 0
BITMAP
01C380
01C380
01C380
000000
000000
000000
003E00
007E00
007E00
007E00
00FF00
00EF00
00E700
00E780
01E780
01C780
01C380
03C3C0
03C3C0
0381C0
0381C0
0781E0
0781E0
0700E0
0700F0
0F00F0
0E00F0
0E0070
1E0078
1FFFF8
1FFFF8
1FFFF8
3C003C
3C003C
3C003C
38001E
78001E
78001E
78001E
F0000F
F0000F
ENDCHAR
STARTCHAR 00C3
ENCODING 195
SWIDTH 380 0
DWIDTH 19 0
BBX 14 35 3 0
BITMAP
0038
0078
0070
00E0
01C0
0380
0700
0000
0000
0000
1FFC
7FFC
7FFC
F000
E000
E000
E000
E000
E000
E000
E000
E000
E000
E000
E000
E000
E000
E000
E000
E000
E000
F000
FFFC
7FFC
3FFC
ENDCHAR
STARTCHAR 00C4
ENCODING 196
SWIDTH 500 0
DWIDTH 25 0
BBX 24 42 0 0
BITMAP
03C000
01E000
007000
003800
001C00
000000
000000
007C00
007E00
007E00
007E00
00FF00
00EF00
00EF00
01E700
01C780
01C780
01C780
03C3C0
0383C0
0383C0
0381C0
0781E0
0701E0
0701E0
0F00E0
0E00F0
0E00F0
0E00F0
1E0078
1FFFF8
1FFFF8
1FFFF8
3C003C
3C003C
38003C
78003C
78001E
78001E
70001E
F0001F
F0000F
ENDCHAR
STARTCHAR 00C5
ENCODING 197
SWIDTH 500 0
DWIDTH 25 0
BBX 24 42 0 0
BITMAP
01E030
03F030
073830
060E70
0607E0
0603C0
000000
003E00
003E00
007E00
007F00
007F00
00FF00
00F700
00E780
00E780
01E380
01C380
01C3C0
03C3C0
03C1C0
0381E0
0381E0
0780E0
0700E0
0700F0
0F00F0
0F0070
0E0070
0E0078
1FFFF8
1FFFF8
1FFFF8
3E003C
3C003C
3C001C
3C001E
78001E
78001E
78000E
F8000F
F0000F
ENDCHAR
STARTCHAR 00C6
ENCODING 198
SWIDTH 780 0
DWIDTH 39 0
BBX 38 35 -1 0
BITMAP
00003FFFF8
00007FFFF8
00007FFFF8
0000FE0000
0000FE0000
0001EE0000
0001EE0000
0003CE0000
0003CE0000
00078E0000
00070E0000
000F0E0000
000E0E0000
001E0E0000
003C0E0000
003C0FFFE0
00780FFFE0
00780FFFE0
00F00E0000
00F00E0000
01E00E0000
01C00E0000
03C00E0000
03FFFE0000
07FFFE0000
07FFFE0000
0F000E0000
1F000E0000
1E000E0000
3E000E0000
3C000E0000
7C000E0000
78000FFFFC
F0000FFFFC
F0000FFFFC
ENDCHAR
STARTCHAR 00C7
ENCODING 199
SWIDTH 480 0
DWIDTH 24 0
BBX 19 41 4 1
BITMAP
00F800
01DC00
038E00
070700
0E0380
000000
1FFFE0
7FFFE0
7FFFE0
F00020
E00000
E00000
E00000
E00000
E00000
E00000
E00000
E00000
E00000
E00000
E00000
E00000
E00000
E00000
E00000
E00000
E00000
E00000
E00000
E00000
E00000
E00000
E00000
E00000
E00000
E00000
E00000
F00020
FFFFE0
7FFFE0
3FFFE0
ENDCHAR
STARTCHAR 00C8
ENCODING 200
SWIDTH 480 0
DWIDTH 24 0
BBX 18 41 4 1
BITMAP
0F0000
038000
01C000
00E000
007000
000000
FFFF80
FFFF80
FFFF80
E00000
E00000
E00000
E00000
E00000
E00000
E00000
E00000
E00000
E00000
E00000
E00000
FFFC00
FFFC00
FFFC00
E00000
E00000
E00000
E00000
E00000
E00000
E00000
E00000
E00000
E00000
E00000
E00000
E00000
E00000
FFFFC0
FFFFC0
FFFFC0
ENDCHAR
STARTCHAR 00C9
ENCODING 201
SWIDTH 480 0
DWIDTH 24 0
BBX 19 41 4 1
BITMAP
003C00
007800
00E000
01C000
038000
000000
FFFFC0
FFFFC0
FFFFC0
E00000
E00000
E00000
E00000
E00000
E00000
E00000
E00000
E00000
E00000
E00000
E00000
FFFE00
FFFE00
FFFE00
E00000
E00000
E00000
E00000
E00000
E00000
E00000
E00000
E00000
E00000
E00000
E00000
E00000
E00000
FFFFE0
FFFFE0
FFFFE0
ENDCHAR
STARTCHAR 00CA
ENCODING 202
SWIDTH 480 0
DWIDTH 24 0
BBX 18 41 4 1
BITMAP
01F000
03F800
071C00
0E0600
180300
000000
FFFF80
FFFF80
FFFF80
E00000
E00000
E00000
E00000
E00000
E00000
E00000
E00000
E00000
E00000
E00000
E00000
FFFF80
FFFF80
FFFF80
E00000
E00000
E00000
E00000
E00000
E00000
E00000
E00000
E00000
E00000
E00000
E00000
E00000
E00000
FFFFC0
FFFFC0
FFFFC0
ENDCHAR
STARTCHAR 00CB
ENCODING 203
SWIDTH 480 0
DWIDTH 24 0
BBX 18 41 4 0
BITMAP
070E00
070E00
070E00
000000
000000
000000
FFFFC0
FFFFC0
FFFFC0
E00000
E00000
E00000
E00000
E00000
E00000
E00000
E00000
E00000
E00000
E00000
E00000
FFFE00
FFFE00
FFFE00
E00000
E00000
E00000
E00000
E00000
E00000
E00000
E00000
E00000
E00000
E00000
E00000
E00000
E00000
FFFFC0
FFFFC0
FFFFC0
ENDCHAR
STARTCHAR 00CC
ENCODING 204
SWIDTH 220 0
DWIDTH 11 0
BBX 7 41 0 1
BITMAP
F0
70
18
0C
06
00
0E
0E
0E
0E
0E
0E
0E
0E
0E
0E
0E
0E
0E
0E
0E
0E
0E
0E
0E
0E
0E
0E
0E
0E
0E
0E
0E
0E
0E
0E
0E
0E
0E
0E
0E
ENDCHAR
STARTCHAR 00CD
ENCODING 205
SWIDTH 220 0
DWIDTH 11 0
BBX 7 41 3 1
BITMAP
0E
1C
38
70
E0
00
70
70
70
70
70
70
70
70
70
70
70
70
70
70
70
70
70
70
70
70
70
70
70
70
70
70
70
70
70
70
70
70
70
70
70
ENDCHAR
STARTCHAR 00CE
ENCODING 206
SWIDTH 220 0
DWIDTH 11 0
BBX 13 41 -1 1
BITMAP
0F80
1DC0
38E0
7070
E038
0000
0700
0700
0700
0700
0700
0700
0700
0700
0700
0700
0700
0700
0700
0700
0700
0700
0700
0700
0700
0700
0700
0700
0700
0700
0700
0700
0700
0700
0700
0700
0700
0700
0700
0700
0700
ENDCHAR
STARTCHAR 00CF
ENCODING 207
SWIDTH 220 0
DWIDTH 11 0
BBX 10 41 1 0
BITMAP
E1C0
E1C0
E1C0
0000
0000
0000
1C00
1C00
1C00
1C00
1C00
1C00
1C00
1C00
1C00
1C00
1C00
1C00
1C00
1C00
1C00
1C00
1C00
1C00
1C00
1C00
1C00
1C00
1C00
1C00
1C00
1C00
1C00
1C00
1C00
1C00
1C00
1C00
1C00
1C00
1C00
ENDCHAR
STARTCHAR 00D1
ENCODING 209
SWIDTH 560 0
DWIDTH 28 0
BBX 20 42 4 0
BITMAP
0780C0
0FC0C0
0CF0C0
1838C0
181F80
180F00
000000
F000F0
F000F0
F800F0
F800F0
FC00F0
FC00F0
FC00F0
FE00F0
EE00F0
EF00F0
E700F0
E780F0
E380F0
E380F0
E1C0F0
E1C0F0
E0E0F0
E0E0F0
E0F0F0
E070F0
E078F0
E038F0
E038F0
E01CF0
E01CF0
E00EF0
E00EF0
E007F0
E007F0
E003F0
E003F0
E003F0
E001F0
E001F0
E000F0
ENDCHAR
STARTCHAR 00D2
ENCODING 210
SWIDTH 560 0
DWIDTH 28 0
BBX 19 41 4 1
BITMAP
078000
03C000
00E000
007000
003800
000000
3FFF80
7FFFC0
7FFFE0
F001E0
E000E0
E000E0
E000E0
E000E0
E000E0
E000E0
E000E0
E000E0
E000E0
E000E0
E000E0
E000E0
E000E0
E000E0
E000E0
E000E0
E000E0
E000E0
E000E0
E000E0
E000E0
E000E0
E000E0
E000E0
E000E0
E000E0
E000E0
F001E0
FFFFE0
7FFFC0
3FFF80
ENDCHAR
STARTCHAR 00D3
ENCODING 211
SWIDTH 560 0
DWIDTH 28 0
BBX 19 41 4 1
BITMAP
000E00
001C00
003000
006000
00C000
000000
3FFF80
7FFFC0
7FFFE0
F001E0
E000E0
E000E0
E000E0
E000E0
E000E0
E000E0
E000E0
E000E0
E000E0
E000E0
E000E0
E000E0
E000E0
E000E0
E000E0
E000E0
E000E0
E000E0
E000E0
E000E0
E000E0
E000E0
E000E0
E000E0
E000E0
E000E0
E000E0
F001E0
FFFFE0
7FFFC0
3FFF80
ENDCHAR
STARTCHAR 00D4
ENCODING 212
SWIDTH 560 0
DWIDTH 28 0
BBX 19 41 4 1
BITMAP
00F800
01DC00
038E00
070700
0E0380
000000
3FFF80
7FFFC0
7FFFE0
F001E0
E000E0
E000E0
E000E0
E000E0
E000E0
E000E0
E000E0
E000E0
E000E0
E000E0
E000E0
E000E0
E000E0
E000E0
E000E0
E000E0
E000E0
E000E0
E000E0
E000E0
E000E0
E000E0
E000E0
E000E0
E000E0
E000E0
E000E0
F001E0
FFFFE0
7FFFC0
3FFF80
ENDCHAR
STARTCHAR 00D5
ENCODING 213
SWIDTH 560 0
DWIDTH 28 0
BBX 19 42 4 0
BITMAP
0F0180
1F8180
11E180
20F180
207F00
201E00
000000
3FFF80
7FFFC0
7FFFE0
F003E0
E001E0
E001E0
E001E0
E001E0
E001E0
E001E0
E001E0
E001E0
E001E0
E001E0
E001E0
E001E0
E001E0
E001E0
E001E0
E001E0
E001E0
E001E0
E001E0
E001E0
E001E0
E001E0
E001E0
E001E0
E001E0
E001E0
E001E0
F003E0
FFFFE0
7FFFC0
3FFF80
ENDCHAR
STARTCHAR 00D6
ENCODING 214
SWIDTH 560 0
DWIDTH 28 0
BBX 19 41 4 0
BITMAP
070E00
070E00
070E00
000000
000000
000000
3FFF80
7FFFC0
7FFFE0
F001E0
E000E0
E000E0
E000E0
E000E0
E000E0
E000E0
E000E0
E000E0
E000E0
E000E0
E000E0
E000E0
E000E0
E000E0
E000E0
E000E0
E000E0
E000E0
E000E0
E000E0
E000E0
E000E0
E000E0
E000E0
E000E0
E000E0
E000E0
F001E0
FFFFE0
7FFFC0
3FFF80
ENDCHAR
STARTCHAR 00D8
ENCODING 216
SWIDTH 560 0
DWIDTH 28 0
BBX 27 35 0 0
BITMAP
03FFF8E0
07FFFCC0
07FFFD80
0F001F80
0E000F00
0E000E00
0E000E00
0E000E00
0E001E00
0E003E00
0E003E00
0E006E00
0E00EE00
0E01CE00
0E018E00
0E030E00
0E070E00
0E0E0E00
0E0C0E00
0E180E00
0E380E00
0E700E00
0E600E00
0EC00E00
0FC00E00
0F800E00
0F000E00
0E000E00
0E000E00
0E000E00
1E000E00
3F001E00
37FFFE00
67FFFC00
E3FFF800
ENDCHAR
STARTCHAR 00D9
ENCODING 217
SWIDTH 560 0
DWIDTH 28 0
BBX 19 41 4 1
BITMAP
070000
038000
01C000
00E000
003000
000000
E000E0
E000E0
E000E0
E000E0
E000E0
E000E0
E000E0
E000E0
E000E0
E000E0
E000E0
E000E0
E000E0
E000E0
E000E0
E000E0
E000E0
E000E0
E000E0
E000E0
E000E0
E000E0
E000E0
E000E0
E000E0
E000E0
E000E0
E000E0
E000E0
E000E0
E000E0
F001E0
FFFFE0
7FFFC0
3FFF80
ENDCHAR
STARTCHAR 00DA
ENCODING 218
SWIDTH 560 0
DWIDTH 28 0
BBX 19 41 4 1
BITMAP
001E00
003800
007000
00E000
01C000
000000
E000E0
E000E0
E000E0
E000E0
E000E0
E000E0
E000E0
E000E0
E000E0
E000E0
E000E0
E000E0
E000E0
E000E0
E000E0
E000E0
E000E0
E000E0
E000E0
E000E0
E000E0
E000E0
E000E0
E000E0
E000E0
E000E0
E000E0
E000E0
E000E0
E000E0
E000E0
F001E0
FFFFE0
7FFFC0
3FFF80
ENDCHAR
STARTCHAR 00DB
ENCODING 219
SWIDTH 560 0
DWIDTH 28 0
BBX 19 41 4 1
BITMAP
00F800
01DC00
038E00
070700
0E0380
000000
E000E0
E000E0
E000E0
E000E0
E000E0
E000E0
E000E0
E000E0
E000E0
E000E0
E000E0
E000E0
E000E0
E000E0
E000E0
E000E0
E000E0
E000E0
E000E0
E000E0
E000E0
E000E0
E000E0
E000E0
E000E0
E000E0
E000E0
E000E0
E000E0
E000E0
E000E0
F001E0
FFFFE0
7FFFC0
3FFF80
ENDCHAR
STARTCHAR 00DC
ENCODING 220
SWIDTH 560 0
DWIDTH 28 0
BBX 19 41 4 0
BITMAP
070E00
070E00
070E00
000000
000000
000000
E000E0
E000E0
E000E0
E000E0
E000E0
E000E0
E000E0
E000E0
E000E0
E000E0
E000E0
E000E0
E000E0
E000E0
E000E0
E000E0
E000E0
E000E0
E000E0
E000E0
E000E0
E000E0
E000E0
E000E0
E000E0
E000E0
E000E0
E000E0
E000E0
E000E0
E000E0
F001E0
FFFFE0
7FFFC0
3FFF80
ENDCHAR
STARTCHAR 00DD
ENCODING 221
SWIDTH 520 0
DWIDTH 26 0
BBX 25 41 1 1
BITMAP
00038000
00070000
000E0000
001C0000
00380000
00000000
F0000780
F8000F00
78000F00
7C001E00
3C001E00
3E003C00
1E003800
0F007800
0F00F000
0780F000
0781E000
03C1E000
01E3C000
01E3C000
00F78000
00F70000
007F0000
003E0000
003E0000
001C0000
001C0000
001C0000
001C0000
001C0000
001C0000
001C0000
001C0000
001C0000
001C0000
001C0000
001C0000
001C0000
001C0000
001C0000
001C0000
ENDCHAR
STARTCHAR 00DF
ENCODING 223
SWIDTH 480 0
DWIDTH 24 0
BBX 18 35 3 0
BITMAP
1FFF00
7FFF80
7FFFC0
F003C0
E001C0
E001C0
E001C0
E001C0
E001C0
E003C0
E00F80
E01F00
E03E00
E07800
E0F000
E0E000
E0E000
E0E000
E0E000
E0F000
E07C00
E03E00
E01F00
E00F80
E003C0
E001C0
E001C0
E001C0
E001C0
E001C0
E001C0
E003C0
E0FFC0
E0FF80
E0FF00
ENDCHAR
STARTCHAR 00E0
ENCODING 224
SWIDTH 460 0
DWIDTH 23 0
BBX 16 33 3 0
BITMAP
1FFC
1FFC
1FFC
0000
0000
0000
0000
0000
FFFC
FFFE
FFFF
000F
0007
0007
0007
0007
0007
1FFF
7FFF
7FFF
F007
E007
E007
E007
E007
E007
E007
E007
E007
F007
7FFF
7FFF
3FFF
ENDCHAR
STARTCHAR 00E1
ENCODING 225
SWIDTH 460 0
DWIDTH 23 0
BBX 16 35 3 1
BITMAP
1804
1804
1804
1C0C
1FFC
0FF8
0000
0000
0000
0000
FFFC
FFFE
FFFF
000F
0007
0007
0007
0007
0007
1FFF
7FFF
7FFF
F007
E007
E007
E007
E007
E007
E007
E007
E007
F007
7FFF
7FFF
3FFF
ENDCHAR
STARTCHAR 00E2
ENCODING 226
SWIDTH 460 0
DWIDTH 23 0
BBX 17 34 3 0
BITMAP
1C1C00
1C1C00
1C1C00
1C1C00
000000
000000
000000
000000
000000
FFFC00
FFFF00
FFFF80
000780
000380
000380
000380
000380
000380
1FFF80
7FFF80
7FFF80
F00380
E00380
E00380
E00380
E00380
E00380
E00380
E00380
E00380
F00380
7FFF80
7FFF80
1FFF80
ENDCHAR
STARTCHAR 00E3
ENCODING 227
SWIDTH 500 0
DWIDTH 25 0
BBX 24 42 0 0
BITMAP
000380
000700
000E00
001C00
003800
000000
000000
007E00
007E00
007E00
007E00
00FF00
00EF00
00E700
00E700
01E780
01C780
01C380
03C3C0
03C3C0
0383C0
0381C0
0781E0
0781E0
0701E0
0700E0
0F00F0
0E00F0
0E0070
1E0078
1FFFF8
1FFFF8
1FFFF8
3C003C
3C003C
3C003C
38003E
78001E
78001E
78001E
F0001F
F0000F
ENDCHAR
STARTCHAR 00E4
ENCODING 228
SWIDTH 460 0
DWIDTH 23 0
BBX 16 35 3 0
BITMAP
1C00
1E00
0F00
0700
0380
01C0
00E0
0000
0000
0000
FFFC
FFFE
FFFF
000F
0007
0007
0007
0007
0007
1FFF
7FFF
7FFF
F007
E007
E007
E007
E007
E007
E007
E007
E007
F007
7FFF
7FFF
3FFF
ENDCHAR
STARTCHAR 00E5
ENCODING 229
SWIDTH 460 0
DWIDTH 23 0
BBX 16 35 3 0
BITMAP
3C03
7F03
7F83
F1C7
E0FE
E07E
E03C
0000
0000
0000
FFF8
FFFE
FFFE
0007
0003
0003
0003
0003
0003
1FFF
7FFF
7FFF
F003
E003
E003
E003
E003
E003
E003
E003
E003
F003
7FFF
7FFF
3FFF
ENDCHAR
STARTCHAR 00E6
ENCODING 230
SWIDTH 700 0
DWIDTH 35 0
BBX 29 25 3 0
BITMAP
FFF8FFE0
FFFDFFF0
FFFFFFF8
000F8078
00070038
00070038
00070038
00070038
00070038
1FFFFFF8
7FFFFFF8
7FFFFFF8
F0070000
E0070000
E0070000
E0070000
E0070000
E0070000
E0070000
E0070000
E0070000
F00F8000
7FFFFFF8
7FFDFFF8
3FF8FFF8
ENDCHAR
STARTCHAR 00E7
ENCODING 231
SWIDTH 380 0
DWIDTH 19 0
BBX 14 35 3 0
BITMAP
0380
07C0
06E0
0EE0
1C70
1838
301C
0000
0000
0000
3FFC
7FFC
7FFC
F000
E000
E000
E000
E000
E000
E000
E000
E000
E000
E000
E000
E000
E000
E000
E000
E000
E000
F000
FFFC
7FFC
3FFC
ENDCHAR
STARTCHAR 00E8
ENCODING 232
SWIDTH 460 0
DWIDTH 23 0
BBX 16 35 3 0
BITMAP
1C00
0E00
0700
0780
0380
01C0
00E0
0000
0000
0000
1FFC
7FFE
7FFF
F00F
E007
E007
E007
E007
E007
FFFF
FFFF
FFFF
E000
E000
E000
E000
E000
E000
E000
E000
E000
F000
7FFF
7FFF
1FFF
ENDCHAR
STARTCHAR 00E9
ENCODING 233
SWIDTH 460 0
DWIDTH 23 0
BBX 16 35 3 0
BITMAP
003C
0038
0070
00E0
01C0
01C0
0380
0000
0000
0000
1FFC
7FFE
7FFF
F00F
E007
E007
E007
E007
E007
FFFF
FFFF
FFFF
E000
E000
E000
E000
E000
E000
E000
E000
E000
F000
7FFF
7FFF
1FFF
ENDCHAR
STARTCHAR 00EA
ENCODING 234
SWIDTH 460 0
DWIDTH 23 0
BBX 16 35 3 0
BITMAP
03C0
03E0
07E0
0E70
1C38
1818
381C
0000
0000
0000
1FFC
7FFE
7FFF
F00F
E007
E007
E007
E007
E007
FFFF
FFFF
FFFF
E000
E000
E000
E000
E000
E000
E000
E000
E000
F000
7FFF
7FFF
1FFF
ENDCHAR
STARTCHAR 00EB
ENCODING 235
SWIDTH 460 0
DWIDTH 23 0
BBX 17 34 3 0
BITMAP
1C1C00
1C1C00
1C1C00
1C1C00
000000
000000
000000
000000
000000
1FFC00
7FFF00
7FFF80
F00780
E00380
E00380
E00380
E00380
E00380
FFFF80
FFFF80
FFFF80
E00000
E00000
E00000
E00000
E00000
E00000
E00000
E00000
E00000
F00000
7FFF80
7FFF80
1FFF80
ENDCHAR
STARTCHAR 00EC
ENCODING 236
SWIDTH 200 0
DWIDTH 10 0
BBX 8 35 -2 0
BITMAP
F0
70
38
1C
0E
07
07
00
00
00
0F
0F
0F
0F
0F
0F
0F
0F
0F
0F
0F
0F
0F
0F
0F
0F
0F
0F
0F
0F
0F
0F
0F
0F
0F
ENDCHAR
STARTCHAR 00ED
ENCODING 237
SWIDTH 200 0
DWIDTH 10 0
BBX 8 35 3 0
BITMAP
0F
1E
1C
38
70
E0
C0
00
00
00
F0
F0
F0
F0
F0
F0
F0
F0
F0
F0
F0
F0
F0
F0
F0
F0
F0
F0
F0
F0
F0
F0
F0
F0
F0
ENDCHAR
STARTCHAR 00EE
ENCODING 238
SWIDTH 200 0
DWIDTH 10 0
BBX 13 35 -1 0
BITMAP
0700
0F80
1DC0
19C0
38E0
7070
E038
0000
0000
0000
0700
0700
0700
0700
0700
0700
0700
0700
0700
0700
0700
0700
0700
0700
0700
0700
0700
0700
0700
0700
0700
0700
0700
0700
0700
ENDCHAR
STARTCHAR 00EF
ENCODING 239
SWIDTH 200 0
DWIDTH 10 0
BBX 10 34 0 0
BITMAP
E1C0
E1C0
E1C0
E1C0
0000
0000
0000
0000
0000
1C00
1C00
1C00
1C00
1C00
1C00
1C00
1C00
1C00
1C00
1C00
1C00
1C00
1C00
1C00
1C00
1C00
1C00
1C00
1C00
1C00
1C00
1C00
1C00
1C00
ENDCHAR
STARTCHAR 00F0
ENCODING 240
SWIDTH 520 0
DWIDTH 26 0
BBX 17 35 4 1
BITMAP
780000
382000
3C7000
1EE000
0FC000
078000
1FC000
3DE000
10F000
007800
003C00
001E00
000E00
000700
000380
3FFF80
7FFF80
FFFF80
F00380
E00380
E00380
E00380
E00380
E00380
E00380
E00380
E00380
E00380
E00380
E00380
E00380
F00780
FFFF80
7FFF00
3FFE00
ENDCHAR
STARTCHAR 00F1
ENCODING 241
SWIDTH 460 0
DWIDTH 23 0
BBX 17 35 3 0
BITMAP
3C0380
7F0380
7F8380
F1C780
E0FF80
E03F00
E01E00
000000
000000
000000
FFFC00
FFFF00
FFFF80
E00780
E00380
E00380
E00380
E00380
E00380
E00380
E00380
E00380
E00380
E00380
E00380
E00380
E00380
E00380
E00380
E00380
E00380
E00380
E00380
E00380
E00380
ENDCHAR
STARTCHAR 00F2
ENCODING 242
SWIDTH 460 0
DWIDTH 23 0
BBX 17 35 3 0
BITMAP
1E0000
0F0000
070000
038000
01C000
00E000
007000
000000
000000
000000
1FFC00
7FFF00
7FFF80
F00780
E00380
E00380
E00380
E00380
E00380
E00380
E00380
E00380
E00380
E00380
E00380
E00380
E00380
E00380
E00380
E00380
E00380
F00780
7FFF00
7FFF00
1FFC00
ENDCHAR
STARTCHAR 00F3
ENCODING 243
SWIDTH 460 0
DWIDTH 23 0
BBX 17 35 3 0
BITMAP
001E00
001C00
003800
007000
00E000
00C000
01C000
000000
000000
000000
1FFC00
7FFF00
7FFF80
F00780
E00380
E00380
E00380
E00380
E00380
E00380
E00380
E00380
E00380
E00380
E00380
E00380
E00380
E00380
E00380
E00380
E00380
F00780
7FFF00
7FFF00
1FFC00
ENDCHAR
STARTCHAR 00F4
ENCODING 244
SWIDTH 460 0
DWIDTH 23 0
BBX 16 35 3 0
BITMAP
03C0
03C0
07E0
0E70
0C38
1818
381C
0000
0000
0000
3FFC
7FFE
7FFF
F00F
E007
E007
E007
E007
E007
E007
E007
E007
E007
E007
E007
E007
E007
E007
E007
E007
E007
F00F
FFFF
7FFE
3FFC
ENDCHAR
STARTCHAR 00F5
ENCODING 245
SWIDTH 460 0
DWIDTH 23 0
BBX 17 35 3 0
BITMAP
3C0380
7F0380
7F8380
F1C780
E0FF80
E03F00
E01E00
000000
000000
000000
1FFC00
7FFF00
7FFF80
F00780
E00380
E00380
E00380
E00380
E00380
E00380
E00380
E00380
E00380
E00380
E00380
E00380
E00380
E00380
E00380
E00380
E00380
F00780
7FFF00
7FFF00
1FFC00
ENDCHAR
STARTCHAR 00F6
ENCODING 246
SWIDTH 460 0
DWIDTH 23 0
BBX 17 34 3 0
BITMAP
1C1C00
1C1C00
1C1C00
1C1C00
000000
000000
000000
000000
000000
1FFC00
7FFF00
7FFF80
F00780
E00380
E00380
E00380
E00380
E00380
E00380
E00380
E00380
E00380
E00380
E00380
E00380
E00380
E00380
E00380
E00380
E00380
F00780
7FFF00
7FFF00
1FFC00
ENDCHAR
STARTCHAR 00F7
ENCODING 247
SWIDTH 460 0
DWIDTH 23 0
BBX 17 20 3 5
BITMAP
01C000
01C000
01C000
000000
000000
000000
000000
000000
000000
FFFF80
FFFF80
FFFF80
000000
000000
000000
000000
000000
01C000
01C000
01C000
ENDCHAR
STARTCHAR 00F8
ENCODING 248
SWIDTH 460 0
DWIDTH 23 0
BBX 23 25 0 0
BITMAP
03FFCE
0FFFEC
0FFFF8
1E00F0
1C0070
1C0070
1C00F0
1C01F0
1C03F0
1C0770
1C0E70
1C1C70
1C3870
1C7070
1CE070
1CC070
1D8070
1F0070
1E0070
1E0070
1C0070
1E00F0
3FFFE0
7FFFE0
E3FF80
ENDCHAR
STARTCHAR 00F9
ENCODING 249
SWIDTH 460 0
DWIDTH 23 0
BBX 17 35 3 0
BITMAP
1C0000
1E0000
0F0000
078000
03C000
01E000
00E000
000000
000000
000000
E00380
E00380
E00380
E00380
E00380
E00380
E00380
E00380
E00380
E00380
E00380
E00380
E00380
E00380
E00380
E00380
E00380
E00380
E00380
E00380
E00380
F00380
7FFF80
7FFF80
1FFF80
ENDCHAR
STARTCHAR 00FA
ENCODING 250
SWIDTH 460 0
DWIDTH 23 0
BBX 17 35 3 0
BITMAP
001E00
001C00
003800
007000
00E000
00E000
01C000
000000
000000
000000
E00380
E00380
E00380
E00380
E00380
E00380
E00380
E00380
E00380
E00380
E00380
E00380
E00380
E00380
E00380
E00380
E00380
E00380
E00380
E00380
E00380
F00380
7FFF80
7FFF80
1FFF80
ENDCHAR
STARTCHAR 00FB
ENCODING 251
SWIDTH 460 0
DWIDTH 23 0
BBX 16 35 3 0
BITMAP
03C0
03C0
07E0
0E70
0C38
1818
381C
0000
0000
0000
E007
E007
E007
E007
E007
E007
E007
E007
E007
E007
E007
E007
E007
E007
E007
E007
E007
E007
E007
E007
E007
F007
FFFF
7FFF
3FFF
ENDCHAR
STARTCHAR 00FC
ENCODING 252
SWIDTH 460 0
DWIDTH 23 0
BBX 17 34 3 0
BITMAP
1C1C00
1C1C00
1C1C00
1C1C00
000000
000000
000000
000000
000000
E00380
E00380
E00380
E00380
E00380
E00380
E00380
E00380
E00380
E00380
E00380
E00380
E00380
E00380
E00380
E00380
E00380
E00380
E00380
E00380
E00380
F00380
7FFF80
7FFF80
1FFF80
ENDCHAR
STARTCHAR 00FD
ENCODING 253
SWIDTH 420 0
DWIDTH 21 0
BBX 19 45 1 -10
BITMAP
000F00
001E00
001C00
003800
007000
00E000
00C000
000000
000000
000000
F001E0
F001E0
7801C0
7803C0
7803C0
380380
3C0380
3C0780
1C0700
1C0700
1E0700
1E0F00
0E0E00
0E0E00
0F1E00
071C00
071C00
079C00
07B800
03B800
03B800
03F800
01F000
01F000
01F000
00E000
00E000
01E000
01C000
03C000
03C000
038000
078000
078000
078000
ENDCHAR
STARTCHAR 00FF
ENCODING 255
SWIDTH 420 0
DWIDTH 21 0
BBX 19 44 1 -10
BITMAP
070E00
070E00
070E00
070E00
000000
000000
000000
000000
000000
F000E0
F801E0
7801C0
7801C0
7803C0
3C0380
3C0380
3C0380
1C0700
1E0700
1E0700
0E0700
0E0E00
0F0E00
070E00
071C00
071C00
079C00
039800
03B800
03B800
01F800
01F000
01F000
00F000
00E000
00E000
01E000
01C000
01C000
03C000
03C000
038000
078000
078000
ENDCHAR
STARTCHAR 0100
ENCODING 256
SWIDTH 500 0
DWIDTH 25 0
BBX 24 45 0 -9
BITMAP
003E00
007E00
007F00
007F00
007F00
00F700
00E780
00E780
00E780
01E380
01C3C0
01C3C0
03C1C0
03C1C0
0381E0
0381E0
0780E0
0700E0
0700F0
070070
0F0070
0E0070
0E0078
1FFFF8
1FFFF8
1FFFF8
1C003C
3C003C
3C001C
38001C
38001E
78001E
78001E
78000E
F0000F
F0000F
00000E
000038
0000E0
0001C0
0001C0
0001C0
0001E0
0001FF
0000FF
ENDCHAR
STARTCHAR 0101
ENCODING 257
SWIDTH 460 0
DWIDTH 23 0
BBX 16 35 3 -10
BITMAP
FFFC
FFFE
FFFF
000F
0007
0007
0007
0007
0007
1FFF
7FFF
7FFF
F007
E007
E007
E007
E007
E007
E007
E007
E007
F007
FFFF
7FFF
7FFF
3FFF
000E
0030
00E0
01C0
01C0
01C0
01E0
01FF
00FF
ENDCHAR
STARTCHAR 0102
ENCODING 258
SWIDTH 500 0
DWIDTH 25 0
BBX 24 42 0 0
BITMAP
001C00
003E00
007700
00E380
01C1C0
000000
000000
003E00
003F00
007F00
007F00
007700
007780
00F780
00F380
00E380
01E3C0
01E3C0
01C1C0
01C1C0
03C1E0
03C1E0
0380E0
0780E0
0780F0
070070
070070
0F0070
0F0078
0E0038
1FFFF8
1FFFF8
1FFFFC
3C001C
3C001C
3C001C
3C001E
78001E
78000E
78000E
F8000F
F0000F
ENDCHAR
STARTCHAR 0103
ENCODING 259
SWIDTH 460 0
DWIDTH 23 0
BBX 16 35 3 0
BITMAP
03C0
03E0
07E0
0E70
0C38
1818
381C
0000
0000
0000
FFFC
FFFE
FFFF
000F
0007
0007
0007
0007
0007
1FFF
7FFF
7FFF
F007
E007
E007
E007
E007
E007
E007
E007
E007
F007
7FFF
7FFF
3FFF
ENDCHAR
STARTCHAR 0104
ENCODING 260
SWIDTH 500 0
DWIDTH 25 0
BBX 24 42 0 0
BITMAP
00FF00
018180
018180
018180
01C180
00FF00
000000
003C00
007E00
007E00
007E00
007F00
00FF00
00E700
00E700
01E780
01E780
01C380
01C3C0
03C3C0
03C3C0
0381C0
0381E0
0781E0
0781E0
0700E0
0F00F0
0F00F0
0E00F0
0E0078
1FFFF8
1FFFF8
1FFFF8
3C007C
3C003C
3C003C
3C003C
78003E
78001E
78001E
F8001F
F0000F
ENDCHAR
STARTCHAR 0105
ENCODING 261
SWIDTH 460 0
DWIDTH 23 0
BBX 16 36 3 0
BITMAP
0FF8
1FFC
180C
180C
180C
180C
1FFC
0FF8
0000
0000
0000
FFFC
FFFE
FFFF
000F
0007
0007
0007
0007
0007
1FFF
7FFF
7FFF
F007
E007
E007
E007
E007
E007
E007
E007
E007
F007
7FFF
7FFF
3FFF
ENDCHAR
STARTCHAR 0106
ENCODING 262
SWIDTH 480 0
DWIDTH 24 0
BBX 18 41 4 1
BITMAP
070700
038E00
01DC00
00F800
007000
000000
3FFFC0
7FFFC0
7FFFC0
F00040
E00000
E00000
E00000
E00000
E00000
E00000
E00000
E00000
E00000
E00000
E00000
E00000
E00000
E00000
E00000
E00000
E00000
E00000
E00000
E00000
E00000
E00000
E00000
E00000
E00000
E00000
E00000
F00040
FFFFC0
7FFFC0
3FFFC0
ENDCHAR
STARTCHAR 0107
ENCODING 263
SWIDTH 380 0
DWIDTH 19 0
BBX 15 35 3 0
BITMAP
380E
1C1C
0E38
0E70
0770
03E0
01C0
0000
0000
0000
1FFE
7FFE
7FFE
F000
E000
E000
E000
E000
E000
E000
E000
E000
E000
E000
E000
E000
E000
E000
E000
E000
E000
F000
7FFE
7FFE
1FFE
ENDCHAR
STARTCHAR 0108
ENCODING 264
SWIDTH 480 0
DWIDTH 24 0
BBX 17 40 4 0
BITMAP
00E000
00E000
00E000
000000
000000
3FFF80
7FFF80
7FFF80
F00000
E00000
E00000
E00000
E00000
E00000
E00000
E00000
E00000
E00000
E00000
E00000
E00000
E00000
E00000
E00000
E00000
E00000
E00000
E00000
E00000
E00000
E00000
E00000
E00000
E00000
E00000
E00000
F00000
FFFF80
7FFF80
3FFF80
ENDCHAR
STARTCHAR 0109
ENCODING 265
SWIDTH 380 0
DWIDTH 19 0
BBX 13 33 3 0
BITMAP
0380
0380
0380
0380
0000
0000
0000
0000
3FF8
7FF8
7FF8
F000
E000
E000
E000
E000
E000
E000
E000
E000
E000
E000
E000
E000
E000
E000
E000
E000
E000
F000
FFF8
7FF8
3FF8
ENDCHAR
STARTCHAR 010A
ENCODING 266
SWIDTH 560 0
DWIDTH 28 0
BBX 19 41 4 1
BITMAP
0E0E00
071C00
03F800
01F000
00E000
000000
FFFF80
FFFFC0
FFFFE0
E001E0
E000E0
E000E0
E000E0
E000E0
E000E0
E000E0
E000E0
E000E0
E000E0
E000E0
E000E0
E000E0
E000E0
E000E0
E000E0
E000E0
E000E0
E000E0
E000E0
E000E0
E000E0
E000E0
E000E0
E000E0
E000E0
E000E0
E000E0
E001E0
FFFFE0
FFFFC0
FFFF80
ENDCHAR
STARTCHAR 010B
ENCODING 267
SWIDTH 480 0
DWIDTH 24 0
BBX 19 41 4 1
BITMAP
000F00
001C00
003800
007000
00E000
000000
1FFFE0
7FFFE0
7FFFE0
F00020
E00000
E00000
E00000
E00000
E00000
E00000
E00000
E00000
E00000
E00000
E00000
E00000
E00000
E00000
E00000
E00000
E00000
E00000
E00000
E00000
E00000
E00000
E00000
E00000
E00000
E00000
E00000
F00020
FFFFE0
7FFFE0
3FFFE0
ENDCHAR
STARTCHAR 010C
ENCODING 268
SWIDTH 480 0
DWIDTH 24 0
BBX 19 45 4 -10
BITMAP
1FFFE0
7FFFE0
7FFFE0
F00020
E00000
E00000
E00000
E00000
E00000
E00000
E00000
E00000
E00000
E00000
E00000
E00000
E00000
E00000
E00000
E00000
E00000
E00000
E00000
E00000
E00000
E00000
E00000
E00000
E00000
E00000
E00000
F00020
FFFFE0
7FFFE0
3FFFE0
006000
006000
00FE00
000700
000700
000700
000700
000700
03FE00
03FC00
ENDCHAR
STARTCHAR 010D
ENCODING 269
SWIDTH 380 0
DWIDTH 19 0
BBX 14 35 3 -10
BITMAP
3FFC
7FFC
7FFC
F000
E000
E000
E000
E000
E000
E000
E000
E000
E000
E000
E000
E000
E000
E000
E000
E000
E000
F000
FFFC
7FFC
3FFC
0380
0300
03F0
0038
0038
0038
0038
0038
0FF8
1FE0
ENDCHAR
STARTCHAR 010E
ENCODING 270
SWIDTH 560 0
DWIDTH 28 0
BBX 19 40 4 0
BITMAP
0FFE00
0FFE00
000000
000000
000000
FFFF80
FFFFC0
FFFFE0
E001E0
E000E0
E000E0
E000E0
E000E0
E000E0
E000E0
E000E0
E000E0
E000E0
E000E0
E000E0
E000E0
E000E0
E000E0
E000E0
E000E0
E000E0
E000E0
E000E0
E000E0
E000E0
E000E0
E000E0
E000E0
E000E0
E000E0
E000E0
E001E0
FFFFE0
FFFFC0
FFFF80
ENDCHAR
STARTCHAR 010F
ENCODING 271
SWIDTH 460 0
DWIDTH 23 0
BBX 18 36 3 0
BITMAP
000700
000700
000700
00FFC0
00FFC0
00FFC0
000700
000700
000700
000700
000700
3FFF00
7FFF00
7FFF00
F00700
E00700
E00700
E00700
E00700
E00700
E00700
E00700
E00700
E00700
E00700
E00700
E00700
E00700
E00700
E00700
E00700
E00700
F00700
FFFF00
7FFF00
3FFF00
ENDCHAR
STARTCHAR 0111
ENCODING 273
SWIDTH 460 0
DWIDTH 23 0
BBX 17 36 3 0
BITMAP
000380
000380
000380
3FFB80
3FFB80
3FFB80
000380
000380
000380
000380
000380
3FFF80
7FFF80
7FFF80
F00380
E00380
E00380
E00380
E00380
E00380
E00380
E00380
E00380
E00380
E00380
E00380
E00380
E00380
E00380
E00380
E00380
E00380
F00380
7FFF80
7FFF80
1FFF80
ENDCHAR
STARTCHAR 0112
ENCODING 274
SWIDTH 480 0
DWIDTH 24 0
BBX 20 40 4 0
BITMAP
07FF00
07FF00
000000
000000
000000
FFFFE0
FFFFE0
FFFFE0
E00000
E00000
E00000
E00000
E00000
E00000
E00000
E00000
E00000
E00000
E00000
E00000
FFFF00
FFFF00
FFFF00
E00000
E00000
E00000
E00000
E00000
E00000
E00000
E00000
E00000
E00000
E00000
E00000
E00000
E00000
FFFFF0
FFFFF0
FFFFF0
ENDCHAR
STARTCHAR 0113
ENCODING 275
SWIDTH 460 0
DWIDTH 23 0
BBX 17 33 3 0
BITMAP
0FFE00
0FFE00
0FFE00
000000
000000
000000
000000
000000
1FFC00
7FFF00
7FFF80
F00780
E00380
E00380
E00380
E00380
E00380
FFFF80
FFFF80
FFFF80
E00000
E00000
E00000
E00000
E00000
E00000
E00000
E00000
E00000
F00000
FFFE00
7FFE00
3FFE00
ENDCHAR
STARTCHAR 0114
ENCODING 276
SWIDTH 480 0
DWIDTH 24 0
BBX 19 41 4 0
BITMAP
180600
180600
1C0E00
0FFC00
07F800
000000
FFFFC0
FFFFC0
FFFFC0
E00000
E00000
E00000
E00000
E00000
E00000
E00000
E00000
E00000
E00000
E00000
E00000
FFFE00
FFFE00
FFFE00
E00000
E00000
E00000
E00000
E00000
E00000
E00000
E00000
E00000
E00000
E00000
E00000
E00000
E00000
FFFFE0
FFFFE0
FFFFE0
ENDCHAR
STARTCHAR 0115
ENCODING 277
SWIDTH 460 0
DWIDTH 23 0
BBX 16 35 3 1
BITMAP
2004
2004
2004
300C
1FF8
0FF0
0000
0000
0000
0000
1FFC
7FFE
7FFF
F00F
E007
E007
E007
E007
E007
FFFF
FFFF
FFFF
E000
E000
E000
E000
E000
E000
E000
E000
E000
F000
7FFF
7FFF
1FFF
ENDCHAR
STARTCHAR 0116
ENCODING 278
SWIDTH 480 0
DWIDTH 24 0
BBX 19 40 4 0
BITMAP
00E000
00E000
00E000
000000
000000
FFFFC0
FFFFC0
FFFFC0
E00000
E00000
E00000
E00000
E00000
E00000
E00000
E00000
E00000
E00000
E00000
E00000
FFFE00
FFFE00
FFFE00
E00000
E00000
E00000
E00000
E00000
E00000
E00000
E00000
E00000
E00000
E00000
E00000
E00000
E00000
FFFFE0
FFFFE0
FFFFE0
ENDCHAR
STARTCHAR 0117
ENCODING 279
SWIDTH 460 0
DWIDTH 23 0
BBX 16 33 3 0
BITMAP
00E0
00E0
00E0
00E0
0000
0000
0000
0000
1FFC
7FFE
7FFF
F00F
E007
E007
E007
E007
E007
FFFF
FFFF
FFFF
E000
E000
E000
E000
E000
E000
E000
E000
E000
F000
7FFF
7FFF
1FFF
ENDCHAR
STARTCHAR 0118
ENCODING 280
SWIDTH 480 0
DWIDTH 24 0
BBX 17 45 4 -10
BITMAP
FFFF00
FFFF00
FFFF00
E00000
E00000
E00000
E00000
E00000
E00000
E00000
E00000
E00000
E00000
E00000
E00000
FFFC00
FFFC00
FFFC00
E00000
E00000
E00000
E00000
E00000
E00000
E00000
E00000
E00000
E00000
E00000
E00000
E00000
E00000
FFFF80
FFFF80
FFFF80
FFFF80
000E00
003800
006000
00C000
01C000
01C000
01E000
00FF00
00FF00
ENDCHAR
STARTCHAR 0119
ENCODING 281
SWIDTH 460 0
DWIDTH 23 0
BBX 16 35 3 -10
BITMAP
1FFC
7FFE
7FFF
F00F
E007
E007
E007
E007
E007
FFFF
FFFF
FFFF
E000
E000
E000
E000
E000
E000
E000
E000
E000
F000
FFFF
7FFF
7FFF
1FFF
000C
0070
01C0
0380
0380
0380
03C0
03FE
01FE
ENDCHAR
STARTCHAR 011A
ENCODING 282
SWIDTH 480 0
DWIDTH 24 0
BBX 19 41 4 1
BITMAP
1C0E00
071C00
03B800
01F000
00E000
000000
FFFFC0
FFFFC0
FFFFC0
E00000
E00000
E00000
E00000
E00000
E00000
E00000
E00000
E00000
E00000
E00000
E00000
FFFF00
FFFF00
FFFF00
E00000
E00000
E00000
E00000
E00000
E00000
E00000
E00000
E00000
E00000
E00000
E00000
E00000
E00000
FFFFE0
FFFFE0
FFFFE0
ENDCHAR
STARTCHAR 011B
ENCODING 283
SWIDTH 460 0
DWIDTH 23 0
BBX 16 35 3 0
BITMAP
380C
1C18
0C38
0E70
07E0
03E0
03C0
0000
0000
0000
1FFC
7FFE
7FFF
F00F
E007
E007
E007
E007
E007
FFFF
FFFF
FFFF
E000
E000
E000
E000
E000
E000
E000
E000
E000
F000
7FFF
7FFF
1FFF
ENDCHAR
STARTCHAR 011C
ENCODING 284
SWIDTH 560 0
DWIDTH 28 0
BBX 19 41 4 1
BITMAP
00F000
01F800
039C00
070600
0E0300
000000
1FFFE0
7FFFE0
7FFFE0
F00020
E00000
E00000
E00000
E00000
E00000
E00000
E00000
E00000
E00000
E00000
E00000
E03FE0
E03FE0
E03FE0
E000E0
E000E0
E000E0
E000E0
E000E0
E000E0
E000E0
E000E0
E000E0
E000E0
E000E0
E000E0
E000E0
F001E0
FFFFE0
7FFFC0
3FFF80
ENDCHAR
STARTCHAR 011D
ENCODING 285
SWIDTH 460 0
DWIDTH 23 0
BBX 16 45 3 -10
BITMAP
01C0
03E0
0770
0670
0E38
1C1C
180C
0000
0000
0000
3FFF
7FFF
7FFF
F007
E007
E007
E007
E007
E007
E007
E007
E007
E007
E007
E007
E007
E007
E007
E007
E007
E007
F007
FFFF
7FFF
3FFF
0007
0007
0007
0007
0007
0007
000F
FFFE
FFFE
FFF8
ENDCHAR
STARTCHAR 011E
ENCODING 286
SWIDTH 560 0
DWIDTH 28 0
BBX 19 41 4 0
BITMAP
0C0600
0C0600
0E0E00
07FE00
03FC00
000000
1FFFE0
7FFFE0
7FFFE0
F00020
E00000
E00000
E00000
E00000
E00000
E00000
E00000
E00000
E00000
E00000
E00000
E07FE0
E07FE0
E07FE0
E000E0
E000E0
E000E0
E000E0
E000E0
E000E0
E000E0
E000E0
E000E0
E000E0
E000E0
E000E0
E000E0
F001E0
FFFFE0
7FFFC0
3FFF80
ENDCHAR
STARTCHAR 011F
ENCODING 287
SWIDTH 460 0
DWIDTH 23 0
BBX 16 45 3 -9
BITMAP
2004
2004
2004
300C
1FF8
0FF0
0000
0000
0000
0000
3FFF
7FFF
7FFF
F007
E007
E007
E007
E007
E007
E007
E007
E007
E007
E007
E007
E007
E007
E007
E007
E007
E007
F007
FFFF
7FFF
3FFF
0007
0007
0007
0007
0007
0007
000F
FFFE
FFFE
FFF8
ENDCHAR
STARTCHAR 0120
ENCODING 288
SWIDTH 560 0
DWIDTH 28 0
BBX 19 40 4 0
BITMAP
00E000
00E000
00E000
000000
000000
1FFFE0
7FFFE0
7FFFE0
F00020
E00000
E00000
E00000
E00000
E00000
E00000
E00000
E00000
E00000
E00000
E00000
E0FFE0
E0FFE0
E0FFE0
E000E0
E000E0
E000E0
E000E0
E000E0
E000E0
E000E0
E000E0
E000E0
E000E0
E000E0
E000E0
E000E0
F001E0
FFFFE0
7FFFC0
3FFF80
ENDCHAR
STARTCHAR 0121
ENCODING 289
SWIDTH 460 0
DWIDTH 23 0
BBX 17 43 3 -10
BITMAP
01C000
01C000
01C000
01C000
000000
000000
000000
000000
1FFF80
7FFF80
7FFF80
F00380
E00380
E00380
E00380
E00380
E00380
E00380
E00380
E00380
E00380
E00380
E00380
E00380
E00380
E00380
E00380
E00380
E00380
F00380
FFFF80
7FFF80
3FFF80
000380
000380
000380
000380
000380
000380
000780
FFFF00
FFFF00
FFFC00
ENDCHAR
STARTCHAR 0122
ENCODING 290
SWIDTH 560 0
DWIDTH 28 0
BBX 19 46 4 -11
BITMAP
1FFFE0
7FFFE0
7FFFE0
F00020
E00000
E00000
E00000
E00000
E00000
E00000
E00000
E00000
E00000
E00000
E00000
E03FE0
E03FE0
E03FE0
E000E0
E000E0
E000E0
E000E0
E000E0
E000E0
E000E0
E000E0
E000E0
E000E0
E000E0
E000E0
E000E0
F001E0
FFFFE0
7FFFC0
3FFF80
000000
000000
003800
003800
003800
003800
007800
007000
007000
00E000
00E000
ENDCHAR
STARTCHAR 0123
ENCODING 291
SWIDTH 460 0
DWIDTH 23 0
BBX 17 47 3 -11
BITMAP
001800
001800
003800
003800
007000
007000
007000
007000
007000
000000
000000
1FFF80
7FFF80
7FFF80
F00380
E00380
E00380
E00380
E00380
E00380
E00380
E00380
E00380
E00380
E00380
E00380
E00380
E00380
E00380
E00380
E00380
E00380
F00380
7FFF80
7FFF80
1FFF80
000380
000380
000380
000380
000380
000380
000780
FFFF80
FFFF00
FFFF00
FFFC00
ENDCHAR
STARTCHAR 0124
ENCODING 292
SWIDTH 560 0
DWIDTH 28 0
BBX 19 42 4 0
BITMAP
007000
00F800
01DC00
038E00
070700
0E0380
000000
E000E0
E000E0
E000E0
E000E0
E000E0
E000E0
E000E0
E000E0
E000E0
E000E0
E000E0
E000E0
E000E0
E000E0
E000E0
FFFFE0
FFFFE0
FFFFE0
E000E0
E000E0
E000E0
E000E0
E000E0
E000E0
E000E0
E000E0
E000E0
E000E0
E000E0
E000E0
E000E0
E000E0
E000E0
E000E0
E000E0
ENDCHAR
STARTCHAR 0125
ENCODING 293
SWIDTH 460 0
DWIDTH 23 0
BBX 18 41 2 1
BITMAP
1F0000
3B8000
71E000
E0F000
C03800
000000
700000
700000
700000
700000
700000
700000
700000
700000
700000
700000
7FFF00
7FFF80
7FFFC0
7003C0
7001C0
7001C0
7001C0
7001C0
7001C0
7001C0
7001C0
7001C0
7001C0
7001C0
7001C0
7001C0
7001C0
7001C0
7001C0
7001C0
7001C0
7001C0
7001C0
7001C0
7001C0
ENDCHAR
STARTCHAR 0126
ENCODING 294
SWIDTH 560 0
DWIDTH 28 0
BBX 25 36 1 0
BITMAP
1C001C00
1C001C00
1C001C00
FFFFFF80
FFFFFF80
FFFFFF80
1C001C00
1C001C00
1C001C00
1C001C00
1C001C00
1C001C00
1C001C00
1C001C00
1C001C00
1C001C00
1FFFFC00
1FFFFC00
1FFFFC00
1C001C00
1C001C00
1C001C00
1C001C00
1C001C00
1C001C00
1C001C00
1C001C00
1C001C00
1C001C00
1C001C00
1C001C00
1C001C00
1C001C00
1C001C00
1C001C00
1C001C00
ENDCHAR
STARTCHAR 0127
ENCODING 295
SWIDTH 460 0
DWIDTH 23 0
BBX 18 36 1 0
BITMAP
380000
380000
380000
FFC000
FFC000
FFC000
380000
380000
380000
380000
380000
3FFF00
3FFF80
3FFFC0
3803C0
3801C0
3801C0
3801C0
3801C0
3801C0
3801C0
3801C0
3801C0
3801C0
3801C0
3801C0
3801C0
3801C0
3801C0
3801C0
3801C0
3801C0
3801C0
3801C0
3801C0
3801C0
ENDCHAR
STARTCHAR 0128
ENCODING 296
SWIDTH 220 0
DWIDTH 11 0
BBX 15 42 -2 0
BITMAP
3C06
7E06
6786
C1C6
C0FC
C078
0000
0380
0380
0380
0380
0380
0380
0380
0380
0380
0380
0380
0380
0380
0380
0380
0380
0380
0380
0380
0380
0380
0380
0380
0380
0380
0380
0380
0380
0380
0380
0380
0380
0380
0380
0380
ENDCHAR
STARTCHAR 0129
ENCODING 297
SWIDTH 200 0
DWIDTH 10 0
BBX 15 35 -2 0
BITMAP
3C06
7E06
7F06
C38E
C1FC
C0FC
C078
0000
0000
0000
0700
0700
0700
0700
0700
0700
0700
0700
0700
0700
0700
0700
0700
0700
0700
0700
0700
0700
0700
0700
0700
0700
0700
0700
0700
ENDCHAR
STARTCHAR 012A
ENCODING 298
SWIDTH 220 0
DWIDTH 11 0
BBX 11 40 0 0
BITMAP
FFE0
FFE0
0000
0000
0000
0E00
0E00
0E00
0E00
0E00
0E00
0E00
0E00
0E00
0E00
0E00
0E00
0E00
0E00
0E00
0E00
0E00
0E00
0E00
0E00
0E00
0E00
0E00
0E00
0E00
0E00
0E00
0E00
0E00
0E00
0E00
0E00
0E00
0E00
0E00
ENDCHAR
STARTCHAR 012B
ENCODING 299
SWIDTH 200 0
DWIDTH 10 0
BBX 11 33 0 0
BITMAP
FFE0
FFE0
FFE0
0000
0000
0000
0000
0000
0E00
0E00
0E00
0E00
0E00
0E00
0E00
0E00
0E00
0E00
0E00
0E00
0E00
0E00
0E00
0E00
0E00
0E00
0E00
0E00
0E00
0E00
0E00
0E00
0E00
ENDCHAR
STARTCHAR 012C
ENCODING 300
SWIDTH 220 0
DWIDTH 11 0
BBX 11 41 0 0
BITMAP
C060
C060
E0E0
FFE0
7FC0
0000
0E00
0E00
0E00
0E00
0E00
0E00
0E00
0E00
0E00
0E00
0E00
0E00
0E00
0E00
0E00
0E00
0E00
0E00
0E00
0E00
0E00
0E00
0E00
0E00
0E00
0E00
0E00
0E00
0E00
0E00
0E00
0E00
0E00
0E00
0E00
ENDCHAR
STARTCHAR 012D
ENCODING 301
SWIDTH 200 0
DWIDTH 10 0
BBX 12 35 -1 1
BITMAP
C030
C030
C030
E070
7FE0
3FC0
0000
0000
0000
0000
0E00
0E00
0E00
0E00
0E00
0E00
0E00
0E00
0E00
0E00
0E00
0E00
0E00
0E00
0E00
0E00
0E00
0E00
0E00
0E00
0E00
0E00
0E00
0E00
0E00
ENDCHAR
STARTCHAR 012E
ENCODING 302
SWIDTH 220 0
DWIDTH 11 0
BBX 8 44 -1 -10
BITMAP
07
07
07
07
07
07
07
07
07
07
07
07
07
07
07
07
07
07
07
07
07
07
07
07
07
07
07
07
07
07
07
07
07
07
07
0E
18
70
60
E0
E0
F0
FF
7F
ENDCHAR
STARTCHAR 012F
ENCODING 303
SWIDTH 200 0
DWIDTH 10 0
BBX 8 43 0 -10
BITMAP
1C
1C
1C
1C
00
00
00
00
1C
1C
1C
1C
1C
1C
1C
1C
1C
1C
1C
1C
1C
1C
1C
1C
1C
1C
1C
1C
1C
1C
1C
1C
1C
1C
38
70
E0
E0
C0
E0
E0
FF
7F
ENDCHAR
STARTCHAR 0130
ENCODING 304
SWIDTH 220 0
DWIDTH 11 0
BBX 3 40 4 0
BITMAP
E0
E0
E0
00
00
E0
E0
E0
E0
E0
E0
E0
E0
E0
E0
E0
E0
E0
E0
E0
E0
E0
E0
E0
E0
E0
E0
E0
E0
E0
E0
E0
E0
E0
E0
E0
E0
E0
E0
E0
ENDCHAR
STARTCHAR 0131
ENCODING 305
SWIDTH 200 0
DWIDTH 10 0
BBX 3 25 3 0
BITMAP
E0
E0
E0
E0
E0
E0
E0
E0
E0
E0
E0
E0
E0
E0
E0
E0
E0
E0
E0
E0
E0
E0
E0
E0
E0
ENDCHAR
STARTCHAR 0132
ENCODING 306
SWIDTH 500 0
DWIDTH 25 0
BBX 16 35 4 0
BITMAP
E007
E007
E007
E007
E007
E007
E007
E007
E007
E007
E007
E007
E007
E007
E007
E007
E007
E007
E007
E007
E007
E007
E007
E007
E007
E007
E007
E007
E007
E007
E007
E00F
E7FF
E7FE
E7FC
ENDCHAR
STARTCHAR 0133
ENCODING 307
SWIDTH 420 0
DWIDTH 21 0
BBX 14 43 3 -10
BITMAP
E01C
E01C
E01C
E01C
0000
0000
0000
0000
E01C
E01C
E01C
E01C
E01C
E01C
E01C
E01C
E01C
E01C
E01C
E01C
E01C
E01C
E01C
E01C
E01C
E01C
E01C
E01C
E01C
E01C
E01C
E01C
E01C
001C
001C
001C
003C
003C
003C
0038
0038
0078
0078
ENDCHAR
STARTCHAR 0134
ENCODING 308
SWIDTH 340 0
DWIDTH 17 0
BBX 16 41 1 1
BITMAP
00F0
01F8
039C
070E
0E07
0000
0070
0070
0070
0070
0070
0070
0070
0070
0070
0070
0070
0070
0070
0070
0070
0070
0070
0070
0070
0070
0070
0070
0070
0070
0070
0070
0070
0070
0070
0070
0070
00F0
FFE0
FFE0
FF80
ENDCHAR
STARTCHAR 0135
ENCODING 309
SWIDTH 200 0
DWIDTH 10 0
BBX 12 45 -1 -10
BITMAP
0700
0F80
1F80
19C0
38E0
7060
E070
0000
0000
0000
0700
0700
0700
0700
0700
0700
0700
0700
0700
0700
0700
0700
0700
0700
0700
0700
0700
0700
0700
0700
0700
0700
0700
0700
0700
0700
0700
0700
0700
0700
0F00
0E00
0E00
1E00
1E00
ENDCHAR
STARTCHAR 0136
ENCODING 310
SWIDTH 520 0
DWIDTH 26 0
BBX 21 46 4 -10
BITMAP
E000F0
E000F0
E001E0
E001E0
E003C0
E003C0
E00780
E00780
E00F80
E00F00
E01F00
E01E00
E01E00
E03C00
E07C00
FFF800
FFF000
FFF800
E07C00
E03C00
E03E00
E01E00
E01F00
E00F00
E00F80
E00780
E00780
E003C0
E003C0
E003E0
E001E0
E001F0
E000F0
E000F8
E00078
000000
000000
00F000
00F000
00F000
00E000
00E000
01E000
01C000
01C000
038000
ENDCHAR
STARTCHAR 0137
ENCODING 311
SWIDTH 440 0
DWIDTH 22 0
BBX 18 46 3 -11
BITMAP
E00000
E00000
E00000
E00000
E00000
E00000
E00000
E00000
E00000
E00000
E00780
E00780
E00F00
E00F00
E01E00
E01E00
E03C00
E03C00
E07800
E07800
FFF000
FFE000
FFF000
E07800
E07800
E03C00
E03C00
E01E00
E01E00
E01E00
E00F00
E00F00
E00780
E00780
E003C0
000000
000000
00E000
00E000
00E000
00E000
01E000
01C000
03C000
038000
078000
ENDCHAR
STARTCHAR 0139
ENCODING 313
SWIDTH 460 0
DWIDTH 23 0
BBX 18 41 4 1
BITMAP
0F0000
1C0000
180000
300000
600000
000000
E00000
E00000
E00000
E00000
E00000
E00000
E00000
E00000
E00000
E00000
E00000
E00000
E00000
E00000
E00000
E00000
E00000
E00000
E00000
E00000
E00000
E00000
E00000
E00000
E00000
E00000
E00000
E00000
E00000
E00000
E00000
E00000
FFFFC0
FFFFC0
FFFFC0
ENDCHAR
STARTCHAR 013A
ENCODING 314
SWIDTH 200 0
DWIDTH 10 0
BBX 7 41 3 1
BITMAP
0E
1C
38
70
C0
00
E0
E0
E0
E0
E0
E0
E0
E0
E0
E0
E0
E0
E0
E0
E0
E0
E0
E0
E0
E0
E0
E0
E0
E0
E0
E0
E0
E0
E0
E0
E0
E0
E0
E0
E0
ENDCHAR
STARTCHAR 013B
ENCODING 315
SWIDTH 460 0
DWIDTH 23 0
BBX 18 46 4 -11
BITMAP
E00000
E00000
E00000
E00000
E00000
E00000
E00000
E00000
E00000
E00000
E00000
E00000
E00000
E00000
E00000
E00000
E00000
E00000
E00000
E00000
E00000
E00000
E00000
E00000
E00000
E00000
E00000
E00000
E00000
E00000
E00000
E00000
FFFFC0
FFFFC0
FFFFC0
000000
000000
00E000
00E000
00E000
00E000
00E000
01C000
01C000
018000
038000
ENDCHAR
STARTCHAR 013C
ENCODING 316
SWIDTH 200 0
DWIDTH 10 0
BBX 4 46 2 -11
BITMAP
70
70
70
70
70
70
70
70
70
70
70
70
70
70
70
70
70
70
70
70
70
70
70
70
70
70
70
70
70
70
70
70
70
70
70
00
00
70
70
70
70
70
60
E0
E0
C0
ENDCHAR
STARTCHAR 013D
ENCODING 317
SWIDTH 460 0
DWIDTH 23 0
BBX 18 35 4 0
BITMAP
E06000
E06000
E06000
E06000
E06000
E04000
E04000
E04000
E00000
E00000
E00000
E00000
E00000
E00000
E00000
E00000
E00000
E00000
E00000
E00000
E00000
E00000
E00000
E00000
E00000
E00000
E00000
E00000
E00000
E00000
E00000
E00000
FFFFC0
FFFFC0
FFFFC0
ENDCHAR
STARTCHAR 013E
ENCODING 318
SWIDTH 240 0
DWIDTH 12 0
BBX 9 35 3 0
BITMAP
E380
E380
E300
E300
E300
E300
E300
E300
E000
E000
E000
E000
E000
E000
E000
E000
E000
E000
E000
E000
E000
E000
E000
E000
E000
E000
E000
E000
E000
E000
E000
E000
E000
E000
E000
ENDCHAR
STARTCHAR 013F
ENCODING 319
SWIDTH 460 0
DWIDTH 23 0
BBX 18 35 4 0
BITMAP
E00000
E00000
E00000
E00000
E00000
E00000
E00000
E00000
E00000
E00000
E00000
E00000
E00000
E1E000
E1E000
E1E000
E1E000
E00000
E00000
E00000
E00000
E00000
E00000
E00000
E00000
E00000
E00000
E00000
E00000
E00000
E00000
E00000
FFFFC0
FFFFC0
FFFFC0
ENDCHAR
STARTCHAR 0140
ENCODING 320
SWIDTH 240 0
DWIDTH 12 0
BBX 7 35 3 0
BITMAP
E0
E0
E0
E0
E0
E0
E0
E0
E0
E0
E0
E0
E0
EE
EE
EE
EE
E0
E0
E0
E0
E0
E0
E0
E0
E0
E0
E0
E0
E0
E0
E0
E0
E0
E0
ENDCHAR
STARTCHAR 0141
ENCODING 321
SWIDTH 460 0
DWIDTH 23 0
BBX 22 35 1 0
BITMAP
1E0000
1E0000
1E0000
1E0000
1E0000
1E0000
1E0000
1E0000
1E0000
1E0600
1E0E00
1E1E00
1E3C00
1E7000
1EE000
1FC000
1F8000
1F0000
1E0000
3E0000
7E0000
FE0000
DE0000
9E0000
1E0000
1E0000
1E0000
1E0000
1E0000
1E0000
1E0000
1E0000
1FFFFC
1FFFFC
1FFFFC
ENDCHAR
STARTCHAR 0142
ENCODING 322
SWIDTH 220 0
DWIDTH 11 0
BBX 9 35 1 0
BITMAP
1C00
1C00
1C00
1C00
1C00
1C00
1C00
1C00
1C00
1C00
1C80
1D80
1D80
1F00
1E00
1E00
1C00
3C00
3C00
7C00
FC00
DC00
9C00
1C00
1C00
1C00
1C00
1C00
1C00
1C00
1C00
1C00
1C00
1C00
1C00
ENDCHAR
STARTCHAR 0143
ENCODING 323
SWIDTH 560 0
DWIDTH 28 0
BBX 20 41 4 1
BITMAP
000F00
001C00
003800
007000
00E000
000000
F00070
F00070
F80070
F80070
FC0070
FC0070
FE0070
EE0070
EF0070
EF0070
E78070
E78070
E3C070
E3C070
E1C070
E1E070
E0E070
E0F070
E07070
E07870
E03870
E03C70
E01C70
E01E70
E01E70
E00F70
E00F70
E00770
E007F0
E003F0
E003F0
E001F0
E001F0
E000F0
E000F0
ENDCHAR
STARTCHAR 0144
ENCODING 324
SWIDTH 460 0
DWIDTH 23 0
BBX 17 35 3 0
BITMAP
001E00
003C00
007800
007000
00E000
01C000
038000
000000
000000
000000
FFFC00
FFFF00
FFFF80
E00780
E00380
E00380
E00380
E00380
E00380
E00380
E00380
E00380
E00380
E00380
E00380
E00380
E00380
E00380
E00380
E00380
E00380
E00380
E00380
E00380
E00380
ENDCHAR
STARTCHAR 0145
ENCODING 325
SWIDTH 560 0
DWIDTH 28 0
BBX 20 46 4 -11
BITMAP
F00070
F00070
F80070
F80070
FC0070
FC0070
FE0070
EE0070
EF0070
EF0070
E78070
E78070
E38070
E3C070
E1C070
E1E070
E0E070
E0F070
E07070
E07870
E03870
E03C70
E03C70
E01E70
E01E70
E00F70
E00F70
E00770
E007F0
E003F0
E003F0
E001F0
E001F0
E000F0
E000F0
000000
000000
00F000
00F000
00F000
00F000
00E000
00E000
01C000
01C000
01C000
ENDCHAR
STARTCHAR 0146
ENCODING 326
SWIDTH 460 0
DWIDTH 23 0
BBX 17 36 3 -11
BITMAP
FFFC00
FFFF00
FFFF80
E00780
E00380
E00380
E00380
E00380
E00380
E00380
E00380
E00380
E00380
E00380
E00380
E00380
E00380
E00380
E00380
E00380
E00380
E00380
E00380
E00380
E00380
000000
000000
00E000
00E000
00E000
00E000
01E000
01C000
03C000
038000
078000
ENDCHAR
STARTCHAR 0147
ENCODING 327
SWIDTH 560 0
DWIDTH 28 0
BBX 20 41 4 1
BITMAP
070700
038E00
01DC00
00F800
007000
000000
F00070
F80070
F80070
FC0070
FC0070
FE0070
FE0070
EE0070
EF0070
E70070
E78070
E78070
E3C070
E3C070
E1E070
E1E070
E0E070
E0F070
E07070
E07870
E03870
E03C70
E01C70
E01E70
E00E70
E00F70
E00770
E00770
E003F0
E003F0
E001F0
E001F0
E000F0
E000F0
E000F0
ENDCHAR
STARTCHAR 0148
ENCODING 328
SWIDTH 460 0
DWIDTH 23 0
BBX 17 35 3 0
BITMAP
380E00
181C00
0C3800
0E7000
07F000
03E000
03C000
000000
000000
000000
FFFC00
FFFF00
FFFF80
E00780
E00380
E00380
E00380
E00380
E00380
E00380
E00380
E00380
E00380
E00380
E00380
E00380
E00380
E00380
E00380
E00380
E00380
E00380
E00380
E00380
E00380
ENDCHAR
STARTCHAR 0149
ENCODING 329
SWIDTH 460 0
DWIDTH 23 0
BBX 17 35 3 0
BITMAP
E00000
E00000
C00000
C00000
C00000
C00000
C00000
C00000
000000
000000
FFFC00
FFFF00
FFFF80
E00780
E00380
E00380
E00380
E00380
E00380
E00380
E00380
E00380
E00380
E00380
E00380
E00380
E00380
E00380
E00380
E00380
E00380
E00380
E00380
E00380
E00380
ENDCHAR
STARTCHAR 014A
ENCODING 330
SWIDTH 560 0
DWIDTH 28 0
BBX 20 42 4 -7
BITMAP
F00070
F00070
F80070
F80070
FC0070
FC0070
FE0070
EE0070
EF0070
E70070
E78070
E38070
E3C070
E1C070
E1C070
E1E070
E0E070
E0F070
E07070
E07870
E03870
E03C70
E01C70
E01E70
E00E70
E00F70
E00770
E00770
E003F0
E003F0
E001F0
E001F0
E000F0
E000F0
E00070
000070
000070
0000E0
0000E0
0000E0
0000C0
0001C0
ENDCHAR
STARTCHAR 014B
ENCODING 331
SWIDTH 460 0
DWIDTH 23 0
BBX 17 32 3 -7
BITMAP
FFFC00
FFFF00
FFFF80
E00780
E00380
E00380
E00380
E00380
E00380
E00380
E00380
E00380
E00380
E00380
E00380
E00380
E00380
E00380
E00380
E00380
E00380
E00380
E00380
E00380
E00380
000380
000380
000700
000700
000700
000E00
000E00
ENDCHAR
STARTCHAR 014C
ENCODING 332
SWIDTH 560 0
DWIDTH 28 0
BBX 19 40 4 0
BITMAP
07FF00
07FF00
000000
000000
000000
3FFF80
7FFFC0
7FFFE0
F001E0
E000E0
E000E0
E000E0
E000E0
E000E0
E000E0
E000E0
E000E0
E000E0
E000E0
E000E0
E000E0
E000E0
E000E0
E000E0
E000E0
E000E0
E000E0
E000E0
E000E0
E000E0
E000E0
E000E0
E000E0
E000E0
E000E0
E000E0
F001E0
FFFFE0
7FFFC0
3FFF80
ENDCHAR
STARTCHAR 014D
ENCODING 333
SWIDTH 460 0
DWIDTH 23 0
BBX 16 33 3 0
BITMAP
1FFC
1FFC
1FFC
0000
0000
0000
0000
0000
3FFC
7FFE
7FFF
F00F
E007
E007
E007
E007
E007
E007
E007
E007
E007
E007
E007
E007
E007
E007
E007
E007
E007
F00F
FFFF
7FFE
3FFC
ENDCHAR
STARTCHAR 014E
ENCODING 334
SWIDTH 560 0
DWIDTH 28 0
BBX 19 41 4 0
BITMAP
0C0600
0C0600
0E0E00
07FE00
03FC00
000000
3FFF80
7FFFC0
7FFFE0
F001E0
E000E0
E000E0
E000E0
E000E0
E000E0
E000E0
E000E0
E000E0
E000E0
E000E0
E000E0
E000E0
E000E0
E000E0
E000E0
E000E0
E000E0
E000E0
E000E0
E000E0
E000E0
E000E0
E000E0
E000E0
E000E0
E000E0
E000E0
F001E0
FFFFE0
7FFFC0
3FFF80
ENDCHAR
STARTCHAR 014F
ENCODING 335
SWIDTH 460 0
DWIDTH 23 0
BBX 16 35 3 1
BITMAP
200C
200C
200C
301C
1FF8
0FF0
0000
0000
0000
0000
3FFC
7FFE
7FFF
F01F
E00F
E00F
E00F
E00F
E00F
E00F
E00F
E00F
E00F
E00F
E00F
E00F
E00F
E00F
E00F
E00F
E00F
F01F
FFFF
7FFE
3FFC
ENDCHAR
STARTCHAR 0150
ENCODING 336
SWIDTH 560 0
DWIDTH 28 0
BBX 19 41 4 0
BITMAP
00E180
01C300
038600
030C00
061C00
000000
3FFF80
7FFFC0
7FFFE0
F001E0
E000E0
E000E0
E000E0
E000E0
E000E0
E000E0
E000E0
E000E0
E000E0
E000E0
E000E0
E000E0
E000E0
E000E0
E000E0
E000E0
E000E0
E000E0
E000E0
E000E0
E000E0
E000E0
E000E0
E000E0
E000E0
E000E0
E000E0
F001E0
FFFFE0
7FFFC0
3FFF80
ENDCHAR
STARTCHAR 0151
ENCODING 337
SWIDTH 460 0
DWIDTH 23 0
BBX 16 35 3 0
BITMAP
01C7
0386
030C
061C
0E18
0C30
1870
0000
0000
0000
3FFC
7FFE
7FFF
F00F
E007
E007
E007
E007
E007
E007
E007
E007
E007
E007
E007
E007
E007
E007
E007
E007
E007
F00F
FFFF
7FFE
3FFC
ENDCHAR
STARTCHAR 0152
ENCODING 338
SWIDTH 800 0
DWIDTH 40 0
BBX 34 35 4 0
BITMAP
3FFFFFFF80
7FFFFFFF80
7FFFFFFF80
F000E00000
E000E00000
E000E00000
E000E00000
E000E00000
E000E00000
E000E00000
E000E00000
E000E00000
E000E00000
E000E00000
E000E00000
E000FFFE00
E000FFFE00
E000FFFE00
E000E00000
E000E00000
E000E00000
E000E00000
E000E00000
E000E00000
E000E00000
E000E00000
E000E00000
E000E00000
E000E00000
E000E00000
E000E00000
F000E00000
FFFFFFFFC0
7FFFFFFFC0
3FFFFFFFC0
ENDCHAR
STARTCHAR 0153
ENCODING 339
SWIDTH 720 0
DWIDTH 36 0
BBX 29 25 3 0
BITMAP
1FFC7FE0
7FFEFFF0
7FFFFFF8
F007C078
E0038038
E0038038
E0038038
E0038038
E0038038
E003FFF8
E003FFF8
E003FFF8
E0038000
E0038000
E0038000
E0038000
E0038000
E0038000
E0038000
E0038000
E0038000
F007C000
7FFFFFF8
7FFEFFF8
1FFC7FF8
ENDCHAR
STARTCHAR 0154
ENCODING 340
SWIDTH 560 0
DWIDTH 28 0
BBX 21 41 4 1
BITMAP
003C00
007000
00E000
01C000
038000
000000
FFFF80
FFFFC0
FFFFE0
E001E0
E000E0
E000E0
E000E0
E000E0
E000E0
E000E0
E000E0
E000E0
E000E0
E000E0
E001E0
FFFFE0
FFFFC0
FFFF80
E00E00
E00F00
E00F00
E00700
E00780
E00780
E00380
E003C0
E003C0
E001C0
E001E0
E001E0
E000E0
E000F0
E000F0
E00070
E00078
ENDCHAR
STARTCHAR 0155
ENCODING 341
SWIDTH 300 0
DWIDTH 15 0
BBX 11 35 3 0
BITMAP
00E0
01C0
0380
0300
0700
0E00
0C00
0000
0000
0000
EFE0
FFE0
FFE0
F020
E000
E000
E000
E000
E000
E000
E000
E000
E000
E000
E000
E000
E000
E000
E000
E000
E000
E000
E000
E000
E000
ENDCHAR
STARTCHAR 0156
ENCODING 342
SWIDTH 560 0
DWIDTH 28 0
BBX 21 46 4 -11
BITMAP
FFFF80
FFFFC0
FFFFE0
E001E0
E000E0
E000E0
E000E0
E000E0
E000E0
E000E0
E000E0
E000E0
E000E0
E000E0
E001E0
FFFFE0
FFFFC0
FFFF80
E00E00
E00F00
E00700
E00700
E00780
E00380
E00380
E003C0
E003C0
E001C0
E001E0
E001E0
E000E0
E000F0
E000F0
E00070
E00078
000000
000000
007000
007000
007000
007000
007000
00E000
00E000
01C000
01C000
ENDCHAR
STARTCHAR 0157
ENCODING 343
SWIDTH 300 0
DWIDTH 15 0
BBX 13 36 1 -11
BITMAP
3BF8
3FF8
3FF8
3C08
3800
3800
3800
3800
3800
3800
3800
3800
3800
3800
3800
3800
3800
3800
3800
3800
3800
3800
3800
3800
3800
0000
0000
3800
3800
3800
3800
3800
7000
7000
7000
E000
ENDCHAR
STARTCHAR 0158
ENCODING 344
SWIDTH 560 0
DWIDTH 28 0
BBX 21 41 4 1
BITMAP
0E0E00
071C00
03F800
01F000
00E000
000000
FFFF80
FFFFC0
FFFFE0
E001E0
E000E0
E000E0
E000E0
E000E0
E000E0
E000E0
E000E0
E000E0
E000E0
E000E0
E001E0
FFFFE0
FFFFC0
FFFF80
E00E00
E00F00
E00F00
E00700
E00780
E00780
E00380
E003C0
E003C0
E001C0
E001E0
E001E0
E000E0
E000F0
E000F0
E00070
E00078
ENDCHAR
STARTCHAR 0159
ENCODING 345
SWIDTH 300 0
DWIDTH 15 0
BBX 14 35 3 0
BITMAP
701C
3038
3870
1CE0
0FE0
0FC0
0780
0000
0000
0000
F3F8
F7F8
FFF8
FC00
F000
F000
F000
F000
F000
F000
F000
F000
F000
F000
F000
F000
F000
F000
F000
F000
F000
F000
F000
F000
F000
ENDCHAR
STARTCHAR 015A
ENCODING 346
SWIDTH 500 0
DWIDTH 25 0
BBX 18 41 3 1
BITMAP
001C00
003800
007000
00C000
018000
000000
1FFFC0
7FFFC0
7FFFC0
F00040
E00000
E00000
E00000
E00000
E00000
E00000
F00000
780000
7C0000
3E0000
1F0000
07C000
03E000
01F000
00F800
007E00
001F00
000F80
000780
0003C0
0001C0
0001C0
0001C0
0001C0
0001C0
0001C0
0001C0
8003C0
FFFFC0
FFFF80
FFFF00
ENDCHAR
STARTCHAR 015B
ENCODING 347
SWIDTH 400 0
DWIDTH 20 0
BBX 15 35 3 0
BITMAP
003C
0078
00F0
01E0
01C0
0380
0700
0000
0000
0000
1FFE
7FFE
7FFE
F000
E000
E000
E000
F000
F800
7C00
3F00
0F80
07E0
01F8
00FC
003C
001E
000E
000E
000E
000E
001E
FFFE
FFFC
FFF0
ENDCHAR
STARTCHAR 015C
ENCODING 348
SWIDTH 500 0
DWIDTH 25 0
BBX 18 41 3 1
BITMAP
01F000
03F800
071C00
0E0E00
180700
000000
1FFFC0
7FFFC0
7FFFC0
F00040
E00000
E00000
E00000
E00000
E00000
E00000
F00000
780000
7C0000
3E0000
1F0000
07C000
03E000
01F000
00F800
007E00
001F00
000F80
000780
0003C0
0001C0
0001C0
0001C0
0001C0
0001C0
0001C0
0001C0
8003C0
FFFFC0
FFFF80
FFFF00
ENDCHAR
STARTCHAR 015D
ENCODING 349
SWIDTH 400 0
DWIDTH 20 0
BBX 14 35 3 0
BITMAP
0380
07C0
0EE0
0E70
1C70
3838
701C
0000
0000
0000
1FFC
7FFC
7FFC
F000
E000
E000
E000
E000
F000
7C00
3E00
0F80
07C0
01F0
00F8
003C
001C
000C
000C
000C
000C
001C
FFFC
FFF8
FFF0
ENDCHAR
STARTCHAR 015E
ENCODING 350
SWIDTH 500 0
DWIDTH 25 0
BBX 18 45 3 -10
BITMAP
1FFFC0
7FFFC0
7FFFC0
F00040
E00000
E00000
E00000
E00000
E00000
E00000
F00000
780000
7C0000
3E0000
1F0000
07C000
03E000
01F000
00F800
007E00
001F00
000F80
000780
0003C0
0001C0
0001C0
0001C0
0001C0
0001C0
0001C0
0001C0
8003C0
FFFFC0
FFFF80
FFFF00
018000
018000
03F800
001C00
001C00
001C00
001C00
001C00
0FF800
0FF000
ENDCHAR
STARTCHAR 015F
ENCODING 351
SWIDTH 400 0
DWIDTH 20 0
BBX 14 35 3 -10
BITMAP
1FFC
7FFC
7FFC
F000
E000
E000
E000
E000
F000
7C00
3E00
1F80
07C0
03F0
00F8
007C
003C
001C
001C
001C
001C
003C
FFFC
FFF8
FFF0
0700
0600
07E0
0070
0070
0070
0070
0070
1FF0
1FC0
ENDCHAR
STARTCHAR 0160
ENCODING 352
SWIDTH 500 0
DWIDTH 25 0
BBX 18 41 3 1
BITMAP
0E0E00
071C00
03B800
01F000
00E000
000000
1FFFC0
7FFFC0
7FFFC0
F00040
E00000
E00000
E00000
E00000
E00000
E00000
F00000
780000
7C0000
3E0000
1F0000
07C000
03E000
01F000
00F800
007E00
001F00
000F80
000780
0003C0
0001C0
0001C0
0001C0
0001C0
0001C0
0001C0
0001C0
8003C0
FFFFC0
FFFF80
FFFF00
ENDCHAR
STARTCHAR 0161
ENCODING 353
SWIDTH 400 0
DWIDTH 20 0
BBX 15 35 3 0
BITMAP
301C
1838
1C30
0E70
07E0
07C0
03C0
0000
0000
0000
1FFC
7FFC
7FFC
F000
E000
E000
E000
F000
F800
7C00
3F00
0F80
07E0
01F8
00FC
003C
001E
000E
000E
000E
000E
001E
FFFE
FFFC
FFF0
ENDCHAR
STARTCHAR 0162
ENCODING 354
SWIDTH 460 0
DWIDTH 23 0
BBX 19 46 2 -11
BITMAP
FFFFE0
FFFFE0
FFFFE0
00E000
00E000
00E000
00E000
00E000
00E000
00E000
00E000
00E000
00E000
00E000
00E000
00E000
00E000
00E000
00E000
00E000
00E000
00E000
00E000
00E000
00E000
00E000
00E000
00E000
00E000
00E000
00E000
00E000
00E000
00E000
00E000
000000
000000
00E000
00E000
00E000
00E000
00E000
00C000
00C000
01C000
018000
ENDCHAR
STARTCHAR 0163
ENCODING 355
SWIDTH 300 0
DWIDTH 15 0
BBX 11 42 3 -10
BITMAP
6000
E000
E000
E000
E000
E000
FFE0
FFE0
FFE0
E000
E000
E000
E000
E000
E000
E000
E000
E000
E000
E000
E000
E000
E000
E000
E000
E000
E000
F000
7FE0
7FE0
1FE0
0000
0000
0700
0700
0700
0700
0F00
0E00
1E00
1C00
3C00
ENDCHAR
STARTCHAR 0164
ENCODING 356
SWIDTH 460 0
DWIDTH 23 0
BBX 21 41 1 1
BITMAP
070700
038E00
01DC00
00F800
007000
000000
FFFFF8
FFFFF8
FFFFF8
007000
007000
007000
007000
007000
007000
007000
007000
007000
007000
007000
007000
007000
007000
007000
007000
007000
007000
007000
007000
007000
007000
007000
007000
007000
007000
007000
007000
007000
007000
007000
007000
ENDCHAR
STARTCHAR 0165
ENCODING 357
SWIDTH 300 0
DWIDTH 15 0
BBX 11 35 3 0
BITMAP
00C0
00C0
00C0
00C0
60C0
E0C0
E0C0
E0C0
E000
E000
FFE0
FFE0
FFE0
E000
E000
E000
E000
E000
E000
E000
E000
E000
E000
E000
E000
E000
E000
E000
E000
E000
E000
F000
7FE0
7FE0
1FE0
ENDCHAR
STARTCHAR 0166
ENCODING 358
SWIDTH 460 0
DWIDTH 23 0
BBX 20 35 3 0
BITMAP
FFFFF0
FFFFF0
FFFFF0
01C010
01C000
01C000
01C000
01C000
01C000
01C000
01C000
01C000
01C000
01C000
01C000
01C000
01C000
01C000
01C000
FFFFC0
FFFFC0
FFFFC0
01C000
01C000
01C000
01C000
01C000
01C000
01C000
01C000
01C000
01C000
01C000
01C000
01C000
ENDCHAR
STARTCHAR 0167
ENCODING 359
SWIDTH 300 0
DWIDTH 15 0
BBX 14 31 0 1
BITMAP
0600
0E00
0E00
0E00
0E00
0E00
0FFC
0FFC
0FFC
0E00
0E00
0E00
0E00
0E00
0E00
FFFC
FFFC
FFFC
0E00
0E00
0E00
0E00
0E00
0E00
0E00
0E00
0E00
0F00
0FFC
07FC
03FC
ENDCHAR
STARTCHAR 0168
ENCODING 360
SWIDTH 560 0
DWIDTH 28 0
BBX 19 42 4 0
BITMAP
0F0180
1F8180
19E180
307180
303F00
301E00
000000
F001E0
F001E0
F001E0
F001E0
F001E0
F001E0
F001E0
F001E0
F001E0
F001E0
F001E0
F001E0
F001E0
F001E0
F001E0
F001E0
F001E0
F001E0
F001E0
F001E0
F001E0
F001E0
F001E0
F001E0
F001E0
F001E0
F001E0
F001E0
F001E0
F001E0
F001E0
F803E0
FFFFE0
7FFFC0
3FFF80
ENDCHAR
STARTCHAR 0169
ENCODING 361
SWIDTH 460 0
DWIDTH 23 0
BBX 17 35 3 0
BITMAP
3C0380
7F0380
7F8380
F1C780
E0FF80
E03F00
E01E00
000000
000000
000000
E00380
E00380
E00380
E00380
E00380
E00380
E00380
E00380
E00380
E00380
E00380
E00380
E00380
E00380
E00380
E00380
E00380
E00380
E00380
E00380
E00380
F00380
7FFF80
7FFF80
1FFF80
ENDCHAR
STARTCHAR 016A
ENCODING 362
SWIDTH 560 0
DWIDTH 28 0
BBX 19 40 4 0
BITMAP
07FF00
07FF00
000000
000000
000000
E000E0
E000E0
E000E0
E000E0
E000E0
E000E0
E000E0
E000E0
E000E0
E000E0
E000E0
E000E0
E000E0
E000E0
E000E0
E000E0
E000E0
E000E0
E000E0
E000E0
E000E0
E000E0
E000E0
E000E0
E000E0
E000E0
E000E0
E000E0
E000E0
E000E0
E000E0
F001E0
FFFFE0
7FFFC0
3FFF80
ENDCHAR
STARTCHAR 016B
ENCODING 363
SWIDTH 460 0
DWIDTH 23 0
BBX 16 33 3 0
BITMAP
1FFC
1FFC
1FFC
0000
0000
0000
0000
0000
E007
E007
E007
E007
E007
E007
E007
E007
E007
E007
E007
E007
E007
E007
E007
E007
E007
E007
E007
E007
E007
F007
FFFF
7FFF
3FFF
ENDCHAR
STARTCHAR 016C
ENCODING 364
SWIDTH 560 0
DWIDTH 28 0
BBX 19 41 4 0
BITMAP
0C0600
0C0600
0E0E00
07FE00
03FC00
000000
E000E0
E000E0
E000E0
E000E0
E000E0
E000E0
E000E0
E000E0
E000E0
E000E0
E000E0
E000E0
E000E0
E000E0
E000E0
E000E0
E000E0
E000E0
E000E0
E000E0
E000E0
E000E0
E000E0
E000E0
E000E0
E000E0
E000E0
E000E0
E000E0
E000E0
E000E0
F001E0
FFFFE0
7FFFC0
3FFF80
ENDCHAR
STARTCHAR 016D
ENCODING 365
SWIDTH 460 0
DWIDTH 23 0
BBX 16 35 3 1
BITMAP
200C
200C
200C
301C
1FF8
0FF0
0000
0000
0000
0000
E00F
E00F
E00F
E00F
E00F
E00F
E00F
E00F
E00F
E00F
E00F
E00F
E00F
E00F
E00F
E00F
E00F
E00F
E00F
E00F
E00F
F00F
FFFF
7FFF
3FFF
ENDCHAR
STARTCHAR 016E
ENCODING 366
SWIDTH 560 0
DWIDTH 28 0
BBX 19 42 4 0
BITMAP
07FC00
0E0600
0C0600
0C0600
0E0600
07FC00
000000
E000E0
E000E0
E000E0
E000E0
E000E0
E000E0
E000E0
E000E0
E000E0
E000E0
E000E0
E000E0
E000E0
E000E0
E000E0
E000E0
E000E0
E000E0
E000E0
E000E0
E000E0
E000E0
E000E0
E000E0
E000E0
E000E0
E000E0
E000E0
E000E0
E000E0
E000E0
F001E0
FFFFE0
7FFFC0
3FFF80
ENDCHAR
STARTCHAR 016F
ENCODING 367
SWIDTH 460 0
DWIDTH 23 0
BBX 16 36 3 0
BITMAP
0FF8
1FFC
180C
180C
180C
180C
1FFC
0FF8
0000
0000
0000
E007
E007
E007
E007
E007
E007
E007
E007
E007
E007
E007
E007
E007
E007
E007
E007
E007
E007
E007
E007
E007
F007
FFFF
7FFF
3FFF
ENDCHAR
STARTCHAR 0170
ENCODING 368
SWIDTH 560 0
DWIDTH 28 0
BBX 19 41 4 0
BITMAP
0071C0
00E380
01C300
038600
070C00
000000
E000E0
E000E0
E000E0
E000E0
E000E0
E000E0
E000E0
E000E0
E000E0
E000E0
E000E0
E000E0
E000E0
E000E0
E000E0
E000E0
E000E0
E000E0
E000E0
E000E0
E000E0
E000E0
E000E0
E000E0
E000E0
E000E0
E000E0
E000E0
E000E0
E000E0
E000E0
F001E0
FFFFE0
7FFFC0
3FFF80
ENDCHAR
STARTCHAR 0171
ENCODING 369
SWIDTH 460 0
DWIDTH 23 0
BBX 16 35 3 0
BITMAP
01C7
0386
030C
070C
0618
0C38
1830
0000
0000
0000
E007
E007
E007
E007
E007
E007
E007
E007
E007
E007
E007
E007
E007
E007
E007
E007
E007
E007
E007
E007
E007
F007
FFFF
7FFF
3FFF
ENDCHAR
STARTCHAR 0172
ENCODING 370
SWIDTH 560 0
DWIDTH 28 0
BBX 19 45 4 -10
BITMAP
E000E0
E000E0
E000E0
E000E0
E000E0
E000E0
E000E0
E000E0
E000E0
E000E0
E000E0
E000E0
E000E0
E000E0
E000E0
E000E0
E000E0
E000E0
E000E0
E000E0
E000E0
E000E0
E000E0
E000E0
E000E0
E000E0
E000E0
E000E0
E000E0
E000E0
E000E0
F001E0
FFFFE0
7FFFE0
7FFFC0
3FFF80
001C00
006000
01C000
038000
038000
038000
03C000
03FE00
01FE00
ENDCHAR
STARTCHAR 0173
ENCODING 371
SWIDTH 460 0
DWIDTH 23 0
BBX 17 35 3 -10
BITMAP
E00380
E00380
E00380
E00380
E00380
E00380
E00380
E00380
E00380
E00380
E00380
E00380
E00380
E00380
E00380
E00380
E00380
E00380
E00380
E00380
E00380
F00380
FFFF80
7FFF80
7FFF80
3FFF80
000700
003800
007000
00E000
01C000
01C000
01F000
00FF80
007F80
ENDCHAR
STARTCHAR 0174
ENCODING 372
SWIDTH 760 0
DWIDTH 38 0
BBX 36 41 1 1
BITMAP
0000F80000
0001DC0000
00038E0000
0007070000
000E038000
0000000000
F000780070
F0007800F0
7000F800E0
7800F800E0
7800F800E0
7800FC00E0
7800FC01E0
3801DC01C0
3C01DC01C0
3C01DC01C0
3C01DE01C0
1C038E0380
1E038E0380
1E038E0380
1E038E0380
0E038F0380
0E07070700
0F07070700
0F07070700
0707070700
0707070F00
078E038E00
078E038E00
078E038E00
038E038E00
038E039C00
03DC01DC00
03DC01DC00
01DC01DC00
01DC01DC00
01F801F800
01F800F800
00F800F800
00F800F800
00F800F000
ENDCHAR
STARTCHAR 0175
ENCODING 373
SWIDTH 640 0
DWIDTH 32 0
BBX 30 35 1 0
BITMAP
00038000
0007C000
000EE000
000CE000
001C7000
00383800
00701C00
00000000
00000000
00000000
F003C03C
F007C03C
7807C038
7807C038
7807C038
780EE078
3C0EE070
3C0EE070
3C0EE070
1C0CF070
1E1C70E0
1E1C70E0
1E1C70E0
0E1C70E0
0F1839C0
0F3839C0
073839C0
073839C0
07B83980
07B01F80
03F01F80
03F01F80
03F01F00
03F01F00
01E00F00
ENDCHAR
STARTCHAR 0176
ENCODING 374
SWIDTH 520 0
DWIDTH 26 0
BBX 26 41 1 1
BITMAP
003E0000
007F0000
00E38000
01C1C000
0380E000
00000000
F00007C0
F8000780
78000F00
7C000F00
3C001E00
3E003E00
1E003C00
0F007800
0F007800
0780F000
0780F000
03C1E000
01E1C000
01E3C000
00F78000
00F78000
007F0000
003E0000
003E0000
001C0000
001C0000
001C0000
001C0000
001C0000
001C0000
001C0000
001C0000
001C0000
001C0000
001C0000
001C0000
001C0000
001C0000
001C0000
001C0000
ENDCHAR
STARTCHAR 0177
ENCODING 375
SWIDTH 420 0
DWIDTH 21 0
BBX 19 45 1 -10
BITMAP
00E000
01F000
03B800
033800
071C00
0E0E00
1C0700
000000
000000
000000
F000E0
F001E0
7001C0
7801C0
7803C0
380380
380380
3C0380
3C0700
1C0700
1C0700
1E0F00
0E0E00
0E0E00
0F0E00
071C00
071C00
071C00
079800
03B800
03B800
03F000
01F000
01F000
01F000
00E000
01E000
01E000
01C000
03C000
03C000
038000
078000
078000
078000
ENDCHAR
STARTCHAR 0178
ENCODING 376
SWIDTH 520 0
DWIDTH 26 0
BBX 26 41 0 0
BITMAP
00E1C000
00E1C000
00E1C000
00000000
00000000
00000000
F80007C0
78000780
3C000F00
3C000F00
1E001E00
1E001E00
0F003C00
0F007800
07807800
0780F000
03C0F000
03C1E000
01E3C000
00E3C000
00F78000
00778000
007F0000
003E0000
003E0000
001C0000
001C0000
001C0000
001C0000
001C0000
001C0000
001C0000
001C0000
001C0000
001C0000
001C0000
001C0000
001C0000
001C0000
001C0000
001C0000
ENDCHAR
STARTCHAR 0179
ENCODING 377
SWIDTH 500 0
DWIDTH 25 0
BBX 21 41 2 1
BITMAP
000F00
001C00
003800
007000
00E000
000000
FFFFF8
FFFFF8
FFFFF0
0000F0
0000E0
0001E0
0001C0
0003C0
000380
000780
000700
000F00
001E00
001E00
003C00
003800
007800
007000
00F000
00E000
01E000
01C000
03C000
078000
078000
0F0000
0F0000
1E0000
1C0000
3C0000
380000
780000
7FFFF8
FFFFF8
FFFFF8
ENDCHAR
STARTCHAR 017A
ENCODING 378
SWIDTH 400 0
DWIDTH 20 0
BBX 17 35 2 0
BITMAP
001C00
003C00
007800
007000
00E000
01C000
038000
000000
000000
000000
FFFF80
FFFF80
FFFF00
000F00
000E00
001E00
001C00
003800
007800
007000
00E000
01E000
01C000
03C000
038000
070000
0F0000
0E0000
1E0000
3C0000
380000
780000
7FFF80
FFFF80
FFFF80
ENDCHAR
STARTCHAR 017B
ENCODING 379
SWIDTH 500 0
DWIDTH 25 0
BBX 21 40 2 0
BITMAP
007000
007000
007000
000000
000000
FFFFF8
FFFFF8
FFFFF0
0000F0
0000E0
0001E0
0001C0
0003C0
000380
000780
000F00
000F00
001E00
001E00
003C00
003800
007800
007000
00F000
00E000
01E000
03C000
03C000
078000
078000
0F0000
0F0000
1E0000
1C0000
3C0000
380000
780000
7FFFF8
FFFFF8
FFFFF8
ENDCHAR
STARTCHAR 017C
ENCODING 380
SWIDTH 400 0
DWIDTH 20 0
BBX 17 33 2 0
BITMAP
01C000
01C000
01C000
01C000
000000
000000
000000
000000
FFFF80
FFFF80
FFFF00
000F00
001E00
001E00
003C00
003800
007800
00F000
00E000
01E000
01C000
03C000
078000
070000
0F0000
0E0000
1E0000
3C0000
380000
780000
7FFF80
FFFF80
FFFF80
ENDCHAR
STARTCHAR 017D
ENCODING 381
SWIDTH 500 0
DWIDTH 25 0
BBX 21 41 2 1
BITMAP
070700
038E00
01DC00
00F800
007000
000000
FFFFF8
FFFFF8
FFFFF0
0000F0
0000E0
0001E0
0001C0
0003C0
000780
000780
000F00
000F00
001E00
001E00
003C00
003800
007800
007000
00F000
00E000
01E000
03C000
03C000
078000
078000
0F0000
0F0000
1E0000
1C0000
3C0000
380000
780000
FFFFF8
FFFFF8
FFFFF8
ENDCHAR
STARTCHAR 017E
ENCODING 382
SWIDTH 400 0
DWIDTH 20 0
BBX 17 35 2 0
BITMAP
1C0E00
0E0C00
0E1C00
073800
03F000
01F000
01E000
000000
000000
000000
FFFF80
FFFF80
FFFF00
000F00
000E00
001C00
003C00
003800
007800
007000
00E000
01E000
01C000
03C000
078000
070000
0F0000
0E0000
1E0000
3C0000
380000
780000
7FFF80
FFFF80
FFFF80
ENDCHAR
STARTCHAR 0192
ENCODING 402
SWIDTH 300 0
DWIDTH 15 0
BBX 17 45 -2 -10
BITMAP
007F80
00FF80
00FF80
01E000
01C000
01C000
01C000
01C000
01C000
01C000
01FF80
01FF80
01FF80
01C000
01C000
01C000
01C000
01C000
01C000
01C000
01C000
01C000
01C000
01C000
01C000
01C000
01C000
01C000
01C000
01C000
01C000
01C000
01C000
01C000
01C000
01C000
01C000
01C000
01C000
01C000
01C000
03C000
FFC000
FF8000
FF0000
ENDCHAR
STARTCHAR 0218
ENCODING 536
SWIDTH 460 0
DWIDTH 23 0
BBX 17 35 3 0
BITMAP
003C00
003800
007000
00E000
01C000
038000
038000
000000
000000
000000
FFFC00
FFFF00
FFFF80
000780
000380
000380
000380
000380
000380
1FFF80
7FFF80
7FFF80
F00380
E00380
E00380
E00380
E00380
E00380
E00380
E00380
E00380
F00380
7FFF80
7FFF80
1FFF80
ENDCHAR
STARTCHAR 0219
ENCODING 537
SWIDTH 500 0
DWIDTH 25 0
BBX 18 46 3 -11
BITMAP
1FFFC0
7FFFC0
7FFFC0
F00040
E00000
E00000
E00000
E00000
E00000
E00000
F00000
780000
7C0000
3E0000
1F0000
07C000
03E000
01F000
00F800
007E00
001F00
000F80
000780
0003C0
0001C0
0001C0
0001C0
0001C0
0001C0
0001C0
0001C0
8003C0
FFFFC0
FFFF80
FFFF00
000000
000000
00E000
00E000
00E000
00E000
00E000
01C000
01C000
038000
038000
ENDCHAR
STARTCHAR 02C6
ENCODING 710
SWIDTH 420 0
DWIDTH 21 0
BBX 13 7 4 28
BITMAP
0700
0F80
1DC0
19C0
38E0
7070
E038
ENDCHAR
STARTCHAR 02C7
ENCODING 711
SWIDTH 420 0
DWIDTH 21 0
BBX 13 7 4 28
BITMAP
E038
7070
38E0
1DC0
1DC0
0F80
0700
ENDCHAR
STARTCHAR 02D8
ENCODING 728
SWIDTH 400 0
DWIDTH 20 0
BBX 12 6 4 29
BITMAP
C030
C030
C030
E070
7FE0
3FC0
ENDCHAR
STARTCHAR 02D9
ENCODING 729
SWIDTH 200 0
DWIDTH 10 0
BBX 3 4 3 29
BITMAP
E0
E0
E0
E0
ENDCHAR
STARTCHAR 02DA
ENCODING 730
SWIDTH 380 0
DWIDTH 19 0
BBX 11 8 4 28
BITMAP
7FC0
FFE0
C060
C060
C060
C060
FFE0
7FC0
ENDCHAR
STARTCHAR 02DB
ENCODING 731
SWIDTH 340 0
DWIDTH 17 0
BBX 9 10 4 -10
BITMAP
0700
1C00
3800
6000
E000
E000
E000
F000
FF80
7F80
ENDCHAR
STARTCHAR 02DC
ENCODING 732
SWIDTH 460 0
DWIDTH 23 0
BBX 15 7 4 28
BITMAP
3C06
7E06
7F06
C38E
C1FC
C0FC
C078
ENDCHAR
STARTCHAR 02DD
ENCODING 733
SWIDTH 440 0
DWIDTH 22 0
BBX 14 7 4 28
BITMAP
0E1C
0C38
1C70
3860
30E0
61C0
E180
ENDCHAR
STARTCHAR 0394
ENCODING 916
SWIDTH 500 0
DWIDTH 25 0
BBX 24 35 1 0
BITMAP
001C00
003C00
003C00
003C00
007E00
007E00
007E00
007F00
00E700
00E700
00E780
01E380
01C380
01C380
03C3C0
0381C0
0381C0
0781E0
0700E0
0700E0
0700F0
0E0070
0E0070
0E0078
1E0078
1C0038
1C0038
3C003C
38001C
38001C
78001E
7FFFFE
7FFFFE
7FFFFF
FFFFFF
ENDCHAR
STARTCHAR 03A9
ENCODING 937
SWIDTH 520 0
DWIDTH 26 0
BBX 20 35 3 0
BITMAP
1FFF80
7FFFE0
7FFFF0
F000F0
E00070
E00070
E00070
E00070
E00070
E00070
E00070
E00070
E00070
E00070
E00070
E00070
E00070
E00070
E00070
E00070
E00070
F00070
FF8FF0
7F8FE0
3F8FC0
038E00
038E00
038E00
038E00
038E00
038E00
038E00
FF8FF0
FF8FF0
FF8FF0
ENDCHAR
STARTCHAR 03C0
ENCODING 960
SWIDTH 500 0
DWIDTH 25 0
BBX 21 26 2 1
BITMAP
1F0018
7FC018
7FF018
EFF818
CE7FF0
CE3FF0
CE0FC0
0E0380
0E0380
0E0380
0E0380
0E0380
0E0380
0E0380
0E0380
0E0380
0E0380
0E0380
0E0380
0E0380
0E0380
0E0380
0E0380
0E0380
0E0380
0E0380
ENDCHAR
STARTCHAR 2013
ENCODING 8211
SWIDTH 460 0
DWIDTH 23 0
BBX 18 3 3 13
BITMAP
FFFFC0
FFFFC0
FFFFC0
ENDCHAR
STARTCHAR 2014
ENCODING 8212
SWIDTH 720 0
DWIDTH 36 0
BBX 30 3 3 13
BITMAP
FFFFFFFC
FFFFFFFC
FFFFFFFC
ENDCHAR
STARTCHAR 2018
ENCODING 8216
SWIDTH 200 0
DWIDTH 10 0
BBX 5 10 3 27
BITMAP
38
30
70
70
60
E0
E0
E0
E0
E0
ENDCHAR
STARTCHAR 2019
ENCODING 8217
SWIDTH 200 0
DWIDTH 10 0
BBX 5 10 1 25
BITMAP
38
38
38
38
38
30
70
70
60
E0
ENDCHAR
STARTCHAR 201A
ENCODING 8218
SWIDTH 200 0
DWIDTH 10 0
BBX 5 10 1 -7
BITMAP
38
38
38
38
38
30
70
70
60
E0
ENDCHAR
STARTCHAR 201C
ENCODING 8220
SWIDTH 360 0
DWIDTH 18 0
BBX 13 10 3 27
BITMAP
3838
3830
7070
7070
7060
E0E0
E0E0
E0E0
E0E0
E0E0
ENDCHAR
STARTCHAR 201D
ENCODING 8221
SWIDTH 360 0
DWIDTH 18 0
BBX 13 10 1 25
BITMAP
3838
3838
3838
3838
3838
3070
7070
7070
60E0
E0E0
ENDCHAR
STARTCHAR 201E
ENCODING 8222
SWIDTH 360 0
DWIDTH 18 0
BBX 13 10 1 -7
BITMAP
3838
3838
3838
3838
3838
3070
7070
7070
60E0
E0E0
ENDCHAR
STARTCHAR 2020
ENCODING 8224
SWIDTH 480 0
DWIDTH 24 0
BBX 23 35 1 0
BITMAP
003800
003800
003800
003800
003800
003800
003800
003800
003800
003800
FFFFFE
FFFFFE
FFFFFE
003800
003800
003800
003800
003800
003800
003800
003800
003800
003800
003800
003800
003800
003800
003800
003800
003800
003800
003800
003800
003800
003800
ENDCHAR
STARTCHAR 2021
ENCODING 8225
SWIDTH 520 0
DWIDTH 26 0
BBX 23 35 2 0
BITMAP
003800
003800
003800
003800
003800
003800
003800
003800
003800
003800
FFFFFE
FFFFFE
FFFFFE
003800
003800
003800
003800
003800
003800
003800
003800
FFFFFE
FFFFFE
FFFFFE
003800
003800
003800
003800
003800
003800
003800
003800
003800
003800
003800
ENDCHAR
STARTCHAR 2022
ENCODING 8226
SWIDTH 420 0
DWIDTH 21 0
BBX 14 23 4 1
BITMAP
1FE0
7FF8
FFFC
FFFC
FFFC
FFFC
FFFC
FFFC
FFFC
FFFC
FFFC
FFFC
FFFC
FFFC
FFFC
FFFC
FFFC
FFFC
FFFC
FFFC
FFFC
7FF8
0FC0
ENDCHAR
STARTCHAR 2026
ENCODING 8230
SWIDTH 660 0
DWIDTH 33 0
BBX 26 4 3 0
BITMAP
E00E01C0
E00E01C0
E00E01C0
E00E01C0
ENDCHAR
STARTCHAR 2030
ENCODING 8240
SWIDTH 880 0
DWIDTH 44 0
BBX 40 35 2 0
BITMAP
1F800F0000
7FE01E0000
7FE01E0000
E0703C0000
E0703C0000
E070780000
E070780000
E070F00000
E070E00000
E071E00000
E071C00000
E073C00000
E073800000
F0F7800000
7FE7000000
7FEF000000
3F8E000000
001E000000
001C7E01F8
003DFF87FE
0039FF87FE
007BC3CF0F
007381CE07
00F381CE07
00E381CE07
01E381CE07
03C381CE07
03C381CE07
078381CE07
078381CE07
0F0381CE07
0F0381CE07
1E01FF87FE
1C01FF87FE
3C00FE03F8
ENDCHAR
STARTCHAR 2039
ENCODING 8249
SWIDTH 340 0
DWIDTH 17 0
BBX 13 22 2 4
BITMAP
0008
0018
0078
00F8
01F0
03C0
0F80
1F00
3E00
FC00
F000
F000
F800
7C00
3F00
0F80
07C0
03E0
00F0
0078
0038
0018
ENDCHAR
STARTCHAR 203A
ENCODING 8250
SWIDTH 340 0
DWIDTH 17 0
BBX 13 22 2 4
BITMAP
8000
C000
F000
F800
7C00
3E00
0F80
07C0
03E0
01F8
00F8
0078
00F8
01F0
03E0
0F80
1F00
3E00
7800
F000
E000
C000
ENDCHAR
STARTCHAR 2044
ENCODING 8260
SWIDTH 440 0
DWIDTH 22 0
BBX 21 35 0 0
BITMAP
000078
000078
0000F0
0000F0
0001E0
0001E0
0003C0
0003C0
000780
000780
000F00
000F00
001E00
001E00
003C00
003C00
007800
007800
00F000
00F000
01E000
01E000
03C000
03C000
078000
078000
0F0000
0F0000
1E0000
1E0000
3C0000
3C0000
780000
780000
F00000
ENDCHAR
STARTCHAR 20AC
ENCODING 8364
SWIDTH 480 0
DWIDTH 24 0
BBX 20 35 2 0
BITMAP
0FFFF0
1FFFF0
1FFFF0
3C0010
380000
380000
380000
380000
380000
380000
380000
380000
FFFF00
FFFF00
380000
380000
380000
380000
380000
380000
FFFF00
FFFF00
380000
380000
380000
380000
380000
380000
380000
380000
380000
3C0010
3FFFF0
1FFFF0
0FFFF0
ENDCHAR
STARTCHAR 2122
ENCODING 8482
SWIDTH 540 0
DWIDTH 27 0
BBX 21 16 3 23
BITMAP
C00000
C00000
C00000
F9FDF0
F9FFF8
C18618
C18618
C18618
C18618
C18618
C18618
C18618
C18618
C18618
F98618
798618
ENDCHAR
STARTCHAR 2202
ENCODING 8706
SWIDTH 520 0
DWIDTH 26 0
BBX 17 35 4 1
BITMAP
700000
380000
1C0000
0E0000
0F0000
078000
03C000
01E000
00F000
007800
003C00
001E00
000E00
000700
000380
3FFF80
7FFF80
FFFF80
F00380
E00380
E00380
E00380
E00380
E00380
E00380
E00380
E00380
E00380
E00380
E00380
E00380
F00780
FFFF80
7FFF00
3FFE00
ENDCHAR
STARTCHAR 220F
ENCODING 8719
SWIDTH 560 0
DWIDTH 28 0
BBX 19 35 4 0
BITMAP
FFFFE0
FFFFE0
FFFFE0
E000E0
E000E0
E000E0
E000E0
E000E0
E000E0
E000E0
E000E0
E000E0
E000E0
E000E0
E000E0
E000E0
E000E0
E000E0
E000E0
E000E0
E000E0
E000E0
E000E0
E000E0
E000E0
E000E0
E000E0
E000E0
E000E0
E000E0
E000E0
E000E0
E000E0
E000E0
E000E0
ENDCHAR
STARTCHAR 2211
ENCODING 8721
SWIDTH 500 0
DWIDTH 25 0
BBX 20 35 2 0
BITMAP
FFFFF0
FFFFF0
7FFFF0
780000
380000
3C0000
1C0000
1E0000
0E0000
0F0000
070000
078000
038000
03C000
01E000
01E000
00F000
00F000
00F000
01E000
01C000
03C000
038000
078000
070000
0F0000
0E0000
1E0000
1C0000
3C0000
380000
780000
FFFFF0
FFFFF0
FFFFF0
ENDCHAR
STARTCHAR 221A
ENCODING 8730
SWIDTH 680 0
DWIDTH 34 0
BBX 29 35 2 0
BITMAP
00000078
00000078
00000070
000000F0
000000E0
000001E0
000001C0
000003C0
00000380
00000780
FFE00700
FFE00F00
FFE00E00
00E01E00
00E01C00
00E03C00
00E03800
00E07800
00E07000
00E0F000
00E0E000
00E1E000
00E1C000
00E3C000
00E38000
00E78000
00E70000
00EF0000
00EE0000
00FE0000
00FC0000
00FC0000
00F80000
00F80000
00F00000
ENDCHAR
STARTCHAR 221E
ENCODING 8734
SWIDTH 740 0
DWIDTH 37 0
BBX 33 17 2 10
BITMAP
1FFE7FFC00
7FFFFFFF00
FFFFFFFF80
F003E00780
E001C00380
E001C00380
E001C00380
E001C00380
E001C00380
E001C00380
E001C00380
E001C00380
E001C00380
F003E00780
FFFFFFFF80
7FFF9FFF00
1FFE0FFE00
ENDCHAR
STARTCHAR 222B
ENCODING 8747
SWIDTH 280 0
DWIDTH 14 0
BBX 17 45 -2 -10
BITMAP
007F80
00FF80
00FF80
01E000
01C000
01C000
01C000
01C000
01C000
01C000
01C000
01C000
01C000
01C000
01C000
01C000
01C000
01C000
01C000
01C000
01C000
01C000
01C000
01C000
01C000
01C000
01C000
01C000
01C000
01C000
01C000
01C000
01C000
01C000
01C000
01C000
01C000
01C000
01C000
01C000
01C000
03C000
FFC000
FF8000
FF0000
ENDCHAR
STARTCHAR 2248
ENCODING 8776
SWIDTH 460 0
DWIDTH 23 0
BBX 19 17 2 7
BITMAP
1E0060
7F8060
7FE060
E1F0E0
C07FE0
C03FC0
C00F80
000000
000000
000000
1E0060
7F8060
7FE060
E1F0E0
C07FE0
C03FC0
C00F80
ENDCHAR
STARTCHAR 2260
ENCODING 8800
SWIDTH 460 0
DWIDTH 23 0
BBX 18 24 3 3
BITMAP
000380
000300
000700
000600
000E00
FFFFC0
FFFFC0
FFFFC0
003000
007000
006000
00E000
00C000
018000
038000
030000
FFFFC0
FFFFC0
FFFFC0
0C0000
1C0000
380000
300000
700000
ENDCHAR
STARTCHAR 2264
ENCODING 8804
SWIDTH 460 0
DWIDTH 23 0
BBX 18 28 3 0
BITMAP
000040
0000C0
0003C0
000F80
003E00
00FC00
03F000
0FC000
3F0000
7E0000
F80000
F80000
FE0000
3F8000
0FC000
03F000
00FC00
003E00
000F80
0007C0
0001C0
000040
000000
000000
000000
FFFFC0
FFFFC0
FFFFC0
ENDCHAR
STARTCHAR 2265
ENCODING 8805
SWIDTH 460 0
DWIDTH 23 0
BBX 18 28 3 0
BITMAP
800000
C00000
F00000
7C0000
3F0000
0FC000
03F000
00FC00
007F00
001F80
0007C0
0007C0
001FC0
003F00
00FC00
03F000
07C000
1F0000
7C0000
F00000
E00000
800000
000000
000000
000000
FFFFC0
FFFFC0
FFFFC0
ENDCHAR
STARTCHAR 25CA
ENCODING 9674
SWIDTH 500 0
DWIDTH 25 0
BBX 21 45 2 -10
BITMAP
007000
007800
00F800
00FC00
01FC00
01FC00
01DE00
03DE00
038F00
078F00
078F00
070780
0F0780
0E03C0
1E03C0
1E03C0
1C01E0
3C01E0
3800F0
7800F0
7800F0
F00078
F00078
F00078
7800F0
7800F0
7800E0
3C01E0
3C01C0
1E03C0
1E03C0
1E0380
0F0780
0F0700
078F00
078F00
078E00
03DE00
03DC00
01FC00
01FC00
01F800
00F800
00F000
007000
ENDCHAR
STARTCHAR F6C3
ENCODING 63171
SWIDTH 200 0
DWIDTH 10 0
BBX 5 9 2 -11
BITMAP
38
38
38
38
38
70
70
60
E0
ENDCHAR
STARTCHAR F6C9
ENCODING 63177
SWIDTH 480 0
DWIDTH 24 0
BBX 8 5 10 37
BITMAP
0F
1C
38
70
E0
ENDCHAR
STARTCHAR F6CA
ENCODING 63178
SWIDTH 420 0
DWIDTH 21 0
BBX 11 5 5 37
BITMAP
E0E0
71C0
3B80
1F00
0E00
ENDCHAR
STARTCHAR F6CB
ENCODING 63179
SWIDTH 360 0
DWIDTH 18 0
BBX 10 3 4 38
BITMAP
E1C0
E1C0
E1C0
ENDCHAR
STARTCHAR F6CE
ENCODING 63182
SWIDTH 340 0
DWIDTH 17 0
BBX 8 5 5 37
BITMAP
F0
78
1C
0E
07
ENDCHAR
STARTCHAR F6CF
ENCODING 63183
SWIDTH 440 0
DWIDTH 22 0
BBX 13 5 4 36
BITMAP
0E18
1C30
3860
70C0
E180
ENDCHAR
STARTCHAR F6D0
ENCODING 63184
SWIDTH 380 0
DWIDTH 19 0
BBX 11 2 4 37
BITMAP
FFE0
FFE0
ENDCHAR
STARTCHAR FB01
ENCODING 64257
SWIDTH 460 0
DWIDTH 23 0
BBX 16 35 3 0
BITMAP
1FFF
7FFF
7FFF
F000
E000
E000
E000
E000
E000
E000
FFFF
FFFF
FFFF
E007
E007
E007
E007
E007
E007
E007
E007
E007
E007
E007
E007
E007
E007
E007
E007
E007
E007
E007
E007
E007
E007
ENDCHAR
STARTCHAR FB02
ENCODING 64258
SWIDTH 460 0
DWIDTH 23 0
BBX 16 35 3 0
BITMAP
1F87
7F87
7F87
F007
E007
E007
E007
E007
E007
E007
FFFF
FFFF
FFFF
E007
E007
E007
E007
E007
E007
E007
E007
E007
E007
E007
E007
E007
E007
E007
E007
E007
E007
E007
E007
E007
E007
ENDCHAR
ENDFONT
